<?xml version="1.0" standalone="no"?>
<!DOCTYPE svg PUBLIC "-//W3C//DTD SVG 20010904//EN"
 "http://www.w3.org/TR/2001/REC-SVG-20010904/DTD/svg10.dtd">
<svg version="1.0" xmlns="http://www.w3.org/2000/svg"
 width="529.000000pt" height="529.000000pt" viewBox="0 0 529.000000 529.000000"
 preserveAspectRatio="xMidYMid meet">
<metadata>
Created by potrace 1.11, written by Peter Selinger 2001-2013
</metadata>
<g transform="translate(0.000000,529.000000) scale(0.100000,-0.100000)"
fill="#000000" stroke="none">
<path d="M2469 4016 c-2 -2 -33 -7 -68 -10 -35 -4 -68 -9 -73 -12 -5 -3 -25
-8 -46 -10 -20 -2 -68 -11 -107 -19 -86 -17 -123 -24 -152 -29 -28 -4 -205
-51 -313 -83 -46 -14 -91 -26 -100 -28 -8 -2 -35 -13 -60 -24 -25 -11 -57 -21
-73 -21 -15 0 -35 -4 -45 -9 -22 -11 -294 -79 -347 -87 -21 -3 -44 -8 -50 -12
-5 -4 -15 -7 -21 -8 -6 -1 -27 -9 -45 -17 -19 -9 -44 -18 -57 -22 -17 -5 -21
-12 -17 -25 3 -11 -1 -29 -9 -42 -15 -23 -16 -26 -16 -53 0 -18 -2 -20 -145
-126 -60 -45 -112 -85 -115 -88 -3 -3 -26 -21 -52 -39 -74 -52 -144 -125 -166
-174 -34 -73 -85 -314 -97 -451 l-6 -69 48 -50 c55 -57 257 -231 311 -268 98
-67 168 -124 182 -148 9 -15 24 -33 33 -40 8 -7 18 -30 22 -50 5 -29 17 -44
56 -72 27 -19 52 -43 55 -52 3 -10 9 -18 13 -18 8 0 91 -72 169 -147 57 -55
157 -124 207 -143 36 -14 183 -68 325 -119 58 -21 139 -46 180 -55 41 -10 112
-29 157 -42 77 -23 207 -49 298 -60 22 -3 51 -7 65 -10 45 -10 543 -13 610 -4
36 5 88 12 115 15 28 3 61 8 75 10 14 3 34 7 45 9 11 2 67 16 125 30 58 15
114 28 125 31 119 25 169 47 365 155 58 32 115 61 127 64 12 4 25 15 28 26 3
10 33 38 67 62 34 23 74 55 89 71 15 15 31 27 37 27 5 0 42 34 81 75 72 76 76
84 71 162 -1 26 6 39 40 69 47 43 177 134 191 134 5 0 9 3 9 8 0 4 33 22 73
41 196 91 176 77 212 155 18 39 45 107 60 151 15 44 31 89 36 100 10 24 21 93
24 156 1 25 4 50 7 55 18 29 17 90 -3 148 -25 71 -37 89 -55 82 -8 -3 -17 0
-21 7 -8 12 -78 76 -139 127 -109 92 -143 119 -174 140 -19 13 -39 28 -45 34
-5 6 -35 22 -65 35 -30 13 -62 27 -70 31 -10 5 -15 23 -16 58 0 30 4 48 9 45
6 -3 7 -1 3 6 -16 26 -166 78 -276 96 -19 3 -46 9 -60 14 -67 24 -141 42 -157
40 -10 -2 -56 9 -103 24 -47 14 -128 37 -180 51 -52 13 -102 27 -110 30 -8 3
-26 8 -40 10 -14 3 -77 19 -140 36 -113 31 -221 57 -270 66 -14 3 -33 7 -42
10 -10 3 -30 7 -45 10 -16 3 -55 11 -87 19 -53 12 -456 21 -467 11z m1981
-795 c75 -40 302 -254 353 -331 30 -47 31 -62 8 -102 -11 -18 -34 -79 -52
-136 l-32 -103 -81 -39 c-45 -21 -112 -60 -149 -85 -38 -25 -73 -45 -77 -45
-5 0 -16 -10 -24 -22 -15 -21 -17 -21 -33 -5 -15 15 -17 38 -15 185 4 315 22
668 36 691 7 11 36 7 66 -8z m-3545 -343 c-2 -183 -6 -362 -9 -398 -2 -36 -6
-93 -8 -127 -1 -35 -4 -63 -6 -63 -29 0 -344 307 -375 365 -27 51 -27 40 -3
196 6 40 66 130 115 174 24 22 55 50 67 63 13 12 26 22 29 22 4 0 21 11 38 24
38 29 127 75 144 76 10 0 11 -75 8 -332z"/>
</g>
</svg>
