<svg id="Layer_3" data-name="Layer 3" xmlns="http://www.w3.org/2000/svg" xmlns:xlink="http://www.w3.org/1999/xlink" viewBox="0 0 492.41 214.36"><defs><style>.cls-1,.cls-18,.cls-8,.cls-9{opacity:0.43;}.cls-1{fill:url(#linear-gradient);}.cls-2{opacity:0.5;fill:url(#linear-gradient-2);}.cls-3{fill:#543791;}.cls-4{fill:#71338a;}.cls-5{fill:#813a9d;}.cls-6{fill:#411657;}.cls-12,.cls-6{opacity:0.36;}.cls-7{fill:#fff;opacity:0.18;}.cls-8{fill:url(#linear-gradient-3);}.cls-9{fill:url(#linear-gradient-4);}.cls-10{fill:#412d7a;}.cls-11{fill:#4d358f;}.cls-12{fill:#1b103f;}.cls-13{fill:#734e91;}.cls-14{fill:#f6f7f9;}.cls-15{fill:#54227d;}.cls-16{fill:#ceccff;}.cls-17{opacity:0.34;}.cls-18{fill:url(#linear-gradient-5);}</style><linearGradient id="linear-gradient" x1="81.36" y1="167.13" x2="161.2" y2="167.13" gradientUnits="userSpaceOnUse"><stop offset="0" stop-color="#b3c1ff"/><stop offset="1" stop-color="#d098f1"/></linearGradient><linearGradient id="linear-gradient-2" x1="275.2" y1="143.68" x2="411.06" y2="143.68" xlink:href="#linear-gradient"/><linearGradient id="linear-gradient-3" x1="142.63" y1="95.52" x2="320.98" y2="95.52" xlink:href="#linear-gradient"/><linearGradient id="linear-gradient-4" x1="343.13" y1="44.15" x2="384.27" y2="44.15" xlink:href="#linear-gradient"/><linearGradient id="linear-gradient-5" x1="94.64" y1="65.88" x2="135.77" y2="65.88" xlink:href="#linear-gradient"/></defs><path class="cls-1" d="M158.58,165.14a2.82,2.82,0,0,0-2.7,2.29,46.56,46.56,0,0,1-6.73,0c-1.39-.09-2.7-.23-3.94-.41,0-.23,0-.47,0-.71A23.91,23.91,0,0,0,145,163a12.15,12.15,0,0,1,2.36-1.41,12.39,12.39,0,0,1,4.38-1.1,2.81,2.81,0,0,0,3.21,1.75,3.08,3.08,0,0,0-1.55-5.91,2.83,2.83,0,0,0-1.92,3.2,9.71,9.71,0,0,1-4.51,1.28,9.21,9.21,0,0,1-2.44-.26,24,24,0,0,0-1.82-4.95,25.56,25.56,0,0,1,2.94-2.29,26,26,0,0,1,4.65-2.47,2.8,2.8,0,0,0,3.5.77,3.08,3.08,0,0,0-3.06-5.29,2.79,2.79,0,0,0-1.08,3.41,26.31,26.31,0,0,1-4.46,2.79,25.17,25.17,0,0,1-3.41,1.4,24.16,24.16,0,0,0-3-4,17.57,17.57,0,0,1,6-9.08,2.81,2.81,0,0,0,3.61-.35,3.08,3.08,0,0,0-4.58-4.05,2.82,2.82,0,0,0,.1,3.63,17.26,17.26,0,0,1-8.21,7,24,24,0,0,0-4.94-2.93,10.71,10.71,0,0,1,2.17-3.61,2.82,2.82,0,0,0,3.54-1,3.08,3.08,0,0,0-5.26-3.12,2.82,2.82,0,0,0,.77,3.54,18.18,18.18,0,0,1-.83,1.84,17.79,17.79,0,0,1-1.2,2l-.54-.21a24,24,0,0,0-6.69-1.45,20.49,20.49,0,0,1-1.12-9.95,2.8,2.8,0,0,0,2.4-2.64,3.08,3.08,0,0,0-6.11,0,2.81,2.81,0,0,0,2.48,2.66,18.66,18.66,0,0,1-.85,9.91,24,24,0,0,0-6.44,1.25,8.93,8.93,0,0,1-.77-1.48,10.49,10.49,0,0,1-.73-3,2.84,2.84,0,0,0,1.54-3.4,3.08,3.08,0,0,0-5.75,2.1,2.8,2.8,0,0,0,3.15,1.65,17.11,17.11,0,0,1,1.09,2.86,15.41,15.41,0,0,1,.37,1.68,24.06,24.06,0,0,0-5.18,2.83,22.66,22.66,0,0,1-2.55-2.13,23.35,23.35,0,0,1-4.11-5.42,2.8,2.8,0,0,0,.32-3.58,3.08,3.08,0,0,0-4.85,3.73,2.82,2.82,0,0,0,3.59.58,18,18,0,0,1,4.08,5.37,17.12,17.12,0,0,1,1.24,3.3l-.76.73a24.48,24.48,0,0,0-3.31,4.13c-.56-.17-1.15-.36-1.74-.6a18.12,18.12,0,0,1-4.54-2.65A2.81,2.81,0,0,0,93,146.63,3.08,3.08,0,0,0,90.07,152a2.81,2.81,0,0,0,3.51-.89,18.88,18.88,0,0,1,4.67,2.4c.51.36,1,.73,1.41,1.1a24.1,24.1,0,0,0-2.74,8,30.41,30.41,0,0,1-3.76.1,31.77,31.77,0,0,1-5.17-.57,2.84,2.84,0,0,0-2.39-2.88,3.08,3.08,0,0,0-.63,6.08,2.8,2.8,0,0,0,2.9-2.22,34.14,34.14,0,0,1,5.2.5,33.78,33.78,0,0,1,3.64.83c0,.64-.08,1.3-.08,2a24.72,24.72,0,0,0,.43,4.59,20,20,0,0,1-10.5,3.34,2.81,2.81,0,0,0-3.07-1.9,3.08,3.08,0,0,0,1.16,6,2.8,2.8,0,0,0,2.14-2.84,30.7,30.7,0,0,1,5.12-1.21,31.92,31.92,0,0,1,6-.31,23.86,23.86,0,0,0,2.81,5.76,16.14,16.14,0,0,1-5.6,2.85,2.8,2.8,0,0,0-3.36-1.28,2.89,2.89,0,0,0-1.36,3.85,3.2,3.2,0,0,0,2.07,1.91A2.45,2.45,0,0,0,94,187a1.78,1.78,0,0,0,.43-.23,2.93,2.93,0,0,0,1-3.38,23.79,23.79,0,0,1,3.7-1.52,22.53,22.53,0,0,1,2.58-.64,25,25,0,0,0,2.44,2.69l.25.24a20,20,0,0,1-6.68,8.14,2.8,2.8,0,0,0-3.6.12,3.08,3.08,0,0,0,4.3,4.35,2.81,2.81,0,0,0,.18-3.57,26.35,26.35,0,0,1,8.23-7.06,24.78,24.78,0,0,0,6.07,3.14,18.56,18.56,0,0,1-2.5,7.48,2.8,2.8,0,0,0-3.26,1.58,3.08,3.08,0,0,0,5.71,2.2,2.8,2.8,0,0,0-1.3-3.33,25.83,25.83,0,0,1,1.71-5,26.47,26.47,0,0,1,1.31-2.45,24.38,24.38,0,0,0,5.24.81,34.13,34.13,0,0,1,.64,4.72,33.38,33.38,0,0,1-.21,6.73,2.79,2.79,0,0,0-2.39,2.64,3.08,3.08,0,0,0,6.11,0,2.8,2.8,0,0,0-2.38-2.64,39.77,39.77,0,0,1,.31-11.45,24,24,0,0,0,5.46-.84c.15.26.3.52.45.8a19,19,0,0,1,1.73,4.88,2.82,2.82,0,0,0-1.4,3.31,3.08,3.08,0,0,0,5.76-2.05,2.81,2.81,0,0,0-3.24-1.67,12.78,12.78,0,0,1-1.67-5c0-.26-.06-.53-.08-.78a24.5,24.5,0,0,0,5.47-2.72,30.24,30.24,0,0,1,7.32,8.64,2.8,2.8,0,0,0-.3,3.56,3.08,3.08,0,0,0,4.85-3.73,2.82,2.82,0,0,0-3.51-.63,37.14,37.14,0,0,1-4.27-5.2,37.85,37.85,0,0,1-2.32-3.94,23,23,0,0,0,1.94-1.75,23.47,23.47,0,0,0,2.76-3.29,28.44,28.44,0,0,1,9.56,4.75,2.81,2.81,0,0,0,1.1,3.4,3.08,3.08,0,0,0,3-5.31,2.79,2.79,0,0,0-3.5.81,20.83,20.83,0,0,1-4.64-2.47,20.51,20.51,0,0,1-4-3.68A24.11,24.11,0,0,0,144,174a18.92,18.92,0,0,1,2.29.21,19.46,19.46,0,0,1,5,1.46,2.81,2.81,0,0,0,2,3,3.08,3.08,0,0,0,1.52-5.92,2.8,2.8,0,0,0-3.18,1.72,18,18,0,0,1-5.12-1.17,19.43,19.43,0,0,1-2-.94,23.68,23.68,0,0,0,.64-3.78c1.26-.11,2.6-.17,4-.17a50,50,0,0,1,6.72.43,2.81,2.81,0,0,0,2.57,2.44,3.08,3.08,0,0,0,.17-6.12Z"/><path class="cls-2" d="M406.61,140.3a4.78,4.78,0,0,0-4.6,3.9,81.52,81.52,0,0,1-11.46.08c-2.36-.15-4.6-.39-6.69-.7,0-.4,0-.8,0-1.21a41,41,0,0,0-.4-5.8,20.7,20.7,0,0,1,4-2.4,21,21,0,0,1,7.45-1.87,4.8,4.8,0,0,0,5.46,3c2.46-.64,3.86-3.41,3.13-6.19s-3.3-4.52-5.76-3.88a4.83,4.83,0,0,0-3.28,5.46,16.28,16.28,0,0,1-7.66,2.18,15.77,15.77,0,0,1-4.16-.46,40.71,40.71,0,0,0-3.1-8.41,44.21,44.21,0,0,1,12.92-8.1,4.76,4.76,0,0,0,5.95,1.31c2.2-1.26,2.82-4.31,1.38-6.8s-4.38-3.48-6.58-2.21a4.77,4.77,0,0,0-1.84,5.8A45.05,45.05,0,0,1,378,121.13a40.61,40.61,0,0,0-5.07-6.78A29.85,29.85,0,0,1,383.09,98.9a4.8,4.8,0,0,0,6.15-.6c1.68-1.91,1.29-5-.86-6.89s-5.27-1.9-6.95,0a4.79,4.79,0,0,0,.17,6.17,29.31,29.31,0,0,1-14,11.94,41.1,41.1,0,0,0-8.41-5,18.72,18.72,0,0,1,1.78-3.63,18.37,18.37,0,0,1,1.92-2.51,4.79,4.79,0,0,0,6-1.69c1.3-2.18.35-5.14-2.12-6.61s-5.52-.89-6.82,1.29a4.79,4.79,0,0,0,1.3,6,29.21,29.21,0,0,1-1.4,3.14,29.59,29.59,0,0,1-2,3.41l-.91-.35a40.68,40.68,0,0,0-11.39-2.47,35,35,0,0,1-1.91-16.92,4.77,4.77,0,0,0,4.09-4.49c0-2.54-2.33-4.6-5.2-4.6s-5.2,2.06-5.2,4.6a4.78,4.78,0,0,0,4.21,4.51,31.89,31.89,0,0,1,.06,11.35,30.64,30.64,0,0,1-1.5,5.51,41.37,41.37,0,0,0-11,2.14,16.05,16.05,0,0,1-1.3-2.52,17.87,17.87,0,0,1-1.24-5.11,4.81,4.81,0,0,0,2.61-5.79c-.87-2.38-3.76-3.52-6.46-2.53s-4.18,3.72-3.31,6.1a4.76,4.76,0,0,0,5.35,2.82,29.23,29.23,0,0,1,1.85,4.86,27,27,0,0,1,.64,2.86,41.4,41.4,0,0,0-8.82,4.82,38.41,38.41,0,0,1-4.33-3.63,39.48,39.48,0,0,1-7-9.21,4.78,4.78,0,0,0,.55-6.1c-1.55-2-4.65-2.23-6.93-.48s-2.87,4.81-1.32,6.82a4.78,4.78,0,0,0,6.1,1,30.41,30.41,0,0,1,6.94,9.13,29.77,29.77,0,0,1,2.12,5.62c-.44.4-.87.81-1.29,1.24a41.19,41.19,0,0,0-5.65,7c-.95-.28-1.94-.61-3-1a31,31,0,0,1-7.72-4.5,4.79,4.79,0,0,0-1.93-5.85c-2.23-1.22-5.16-.16-6.54,2.36s-.69,5.55,1.53,6.77a4.78,4.78,0,0,0,6-1.51,31.81,31.81,0,0,1,7.95,4.08,29.66,29.66,0,0,1,2.39,1.88,41,41,0,0,0-4.65,13.54,55.63,55.63,0,0,1-15.21-.81,4.81,4.81,0,0,0-4.05-4.89c-2.53-.27-4.82,1.83-5.12,4.69s1.51,5.39,4,5.66a4.81,4.81,0,0,0,5-3.79,59.48,59.48,0,0,1,15,2.26c-.09,1.1-.13,2.22-.13,3.34a41.14,41.14,0,0,0,.74,7.82,34.19,34.19,0,0,1-17.88,5.68,4.79,4.79,0,0,0-5.21-3.24c-2.5.48-4.08,3.16-3.53,6s3,4.72,5.5,4.24a4.77,4.77,0,0,0,3.63-4.85,53.25,53.25,0,0,1,18.85-2.57,40.63,40.63,0,0,0,4.79,9.79,27.31,27.31,0,0,1-9.52,4.85,4.78,4.78,0,0,0-5.73-2.17,4.94,4.94,0,0,0-2.31,6.55,5.41,5.41,0,0,0,3.52,3.24,4.21,4.21,0,0,0,2.69-.14,4.33,4.33,0,0,0,.74-.39,5,5,0,0,0,1.72-5.75,38.66,38.66,0,0,1,6.28-2.59,41.11,41.11,0,0,1,4.41-1.1,39.26,39.26,0,0,0,4.15,4.59c.14.14.27.27.42.4a34.08,34.08,0,0,1-4.82,7.76,34.6,34.6,0,0,1-6.55,6.1,4.77,4.77,0,0,0-6.13.19c-1.81,1.79-1.63,4.89.39,6.94s5.12,2.25,6.92.47a4.78,4.78,0,0,0,.32-6.08,44.9,44.9,0,0,1,6.13-6.52,45.91,45.91,0,0,1,7.87-5.5,40.81,40.81,0,0,0,10.33,5.34,32.41,32.41,0,0,1-.81,4.49,31,31,0,0,1-3.45,8.24,4.79,4.79,0,0,0-5.54,2.7c-.91,2.36.52,5.12,3.2,6.16s5.59,0,6.51-2.41a4.76,4.76,0,0,0-2.21-5.67,43.84,43.84,0,0,1,2.92-8.46,40.43,40.43,0,0,1,2.22-4.17,40.89,40.89,0,0,0,8.91,1.38,57.51,57.51,0,0,1,1.1,8,59.25,59.25,0,0,1-.35,11.45,4.76,4.76,0,0,0-4.08,4.49c0,2.54,2.32,4.6,5.2,4.6s5.2-2.06,5.2-4.6a4.77,4.77,0,0,0-4.05-4.49,67.43,67.43,0,0,1,.52-19.47,41.21,41.21,0,0,0,9.3-1.44c.26.44.51.89.76,1.36a31.61,31.61,0,0,1,2.95,8.31,4.78,4.78,0,0,0-2.38,5.62c.85,2.4,3.74,3.55,6.45,2.59s4.21-3.69,3.35-6.08a4.79,4.79,0,0,0-5.52-2.83,22.15,22.15,0,0,1-2.85-8.45q-.08-.69-.12-1.35a40.56,40.56,0,0,0,9.3-4.62,51.7,51.7,0,0,1,12.46,14.7,4.78,4.78,0,0,0-.52,6.07c1.55,2,4.65,2.22,6.93.47s2.87-4.8,1.32-6.82a4.77,4.77,0,0,0-6-1.07,63.28,63.28,0,0,1-7.26-8.85,62.43,62.43,0,0,1-4-6.71,42.59,42.59,0,0,0,3.31-3,41.83,41.83,0,0,0,4.69-5.59,48.43,48.43,0,0,1,8.67,3.35,47.38,47.38,0,0,1,7.6,4.73,4.77,4.77,0,0,0,1.87,5.78c2.21,1.26,5.15.26,6.58-2.24a4.94,4.94,0,0,0-1.42-6.8,4.78,4.78,0,0,0-6,1.38,36.08,36.08,0,0,1-14.73-10.45,40.49,40.49,0,0,0,2.77-6.48,36.61,36.61,0,0,1,3.88.36,33.66,33.66,0,0,1,8.59,2.48,4.77,4.77,0,0,0,3.32,5.16c2.46.64,5-1.11,5.75-3.89s-.69-5.55-3.15-6.19a4.8,4.8,0,0,0-5.42,2.94,31,31,0,0,1-12.18-3.59,40.28,40.28,0,0,0,1.09-6.44c2.14-.17,4.42-.28,6.81-.29a85,85,0,0,1,11.44.74,4.76,4.76,0,0,0,4.36,4.15c2.54.07,4.67-2.2,4.75-5.07S409.14,140.38,406.61,140.3Z"/><path class="cls-3" d="M396.52,213.73c0,.06-2.08.12-5.94.18-2.3,0-5.23.07-8.73.1l-15.54.11-12.35.06c-26,.11-61.92.18-101.52.18-14.25,0-28,0-41,0H200c-53.65-.09-91.66-.32-91.66-.59s38.13-.49,91.93-.58l15.73,0,36.42,0c39.51,0,75.3.07,101.33.19l15.69.08c4.79,0,9,.06,12.64.09s6.43.06,8.71.1C394.53,213.61,396.52,213.67,396.52,213.73Z"/><path class="cls-4" d="M320.47,59.51c0,.12,0,.25,0,.37s0,.51,0,.76a11.35,11.35,0,0,1-.33,2c-.07.28-.15.56-.24.83a12.53,12.53,0,0,1-.83,2,13,13,0,0,1-.79,1.28,12.77,12.77,0,0,1-2.42,2.59c-.29.24-.6.46-.91.67a12.09,12.09,0,0,1-2.81,1.4,8.18,8.18,0,0,1-.8.25,12.48,12.48,0,0,1-2.82.44H308l-.57,0a12.48,12.48,0,0,1-2.69-.41c-.3-.08-.58-.17-.86-.27a12.53,12.53,0,0,1-3.13-1.61,13.87,13.87,0,0,1-1.25-1l-.13-.12a11.8,11.8,0,0,1-1.25-1.39c-.19-.25-.37-.5-.55-.76a12.49,12.49,0,0,1-1.44-3,11.81,11.81,0,0,1-.41-1.58,12.37,12.37,0,0,1-.23-2.37c0-.34,0-.68,0-1s.06-.63.11-.94a12.46,12.46,0,0,1,1.41-4.1c.13-.23.26-.45.4-.67a12.45,12.45,0,0,1,1.7-2.12c.13-.13.26-.26.4-.38a13,13,0,0,1,1.16-.95,12.64,12.64,0,0,1,2.68-1.46l.55-.21a12.21,12.21,0,0,1,3.32-.64c.25,0,.49,0,.74,0s.61,0,.91,0a12.08,12.08,0,0,1,3.45.75l.27.1c.14.06.28.11.42.18a12.67,12.67,0,0,1,2.54,1.5,13.11,13.11,0,0,1,1.25,1.1l.36.36a13.33,13.33,0,0,1,1.53,2,9.09,9.09,0,0,1,.47.87,12.26,12.26,0,0,1,.94,2.54c.1.42.18.84.24,1.27A12.53,12.53,0,0,1,320.47,59.51Z"/><path class="cls-4" d="M309.53,40.56A1.59,1.59,0,1,1,308,39.17,1.48,1.48,0,0,1,309.53,40.56Z"/><path class="cls-4" d="M308.38,41.34h-.85a9.62,9.62,0,0,1-2,8.55L308,49.6l2.43.21a10.93,10.93,0,0,1-2-4.55A10.77,10.77,0,0,1,308.38,41.34Z"/><path class="cls-4" d="M316,45.7a1.45,1.45,0,0,1-1.82.51,1.08,1.08,0,0,1-.24-.12l-.25-.18a1.45,1.45,0,0,1-.4-1.82A1.59,1.59,0,0,1,316,45.7Z"/><path class="cls-4" d="M314.56,45.78a5.81,5.81,0,0,0-.43.43,5.22,5.22,0,0,0-.58.76,5.33,5.33,0,0,0-.54,1.1,7.13,7.13,0,0,0-.18,3.86l-.59-.17-1.48-.42c-.26-.28-.53-.55-.8-.83l.22-.15a10.57,10.57,0,0,0,1.32-1.15,8.14,8.14,0,0,0,.84-1c.09-.11.17-.23.25-.35a9.36,9.36,0,0,0,.62-1,9.72,9.72,0,0,0,.43-1c.07-.19.14-.38.19-.57l.37.22Z"/><path class="cls-4" d="M325.46,57.37a1.46,1.46,0,0,1-1.65-.91,1.07,1.07,0,0,1-.09-.27,1.42,1.42,0,0,1-.05-.22,1.47,1.47,0,0,1,1-1.65,1.59,1.59,0,0,1,.79,3Z"/><path class="cls-4" d="M324.42,56.45h-.61a6.34,6.34,0,0,0-2.25.57,6,6,0,0,0-1.22.73L320,58l-2,.1h0l-.1-.41v0c0-.12-.07-.25-.1-.38l2.24-.87.16,0a4.61,4.61,0,0,0,1.26.14,4.91,4.91,0,0,0,2.31-.66,3.81,3.81,0,0,0,.53-.34l.11.41Z"/><path class="cls-4" d="M326.36,64.66a1.49,1.49,0,0,1-1.74,1.18,1.45,1.45,0,0,1-1-1.56,1.06,1.06,0,0,1,.05-.31,1.42,1.42,0,0,1,.1-.29,1.44,1.44,0,0,1,1.64-.89A1.49,1.49,0,0,1,326.36,64.66Z"/><path class="cls-4" d="M324.37,63.71c0,.13-.07.27-.11.41s-.07.27-.1.41l-.54-.25a10.24,10.24,0,0,0-2.6-.76,9.89,9.89,0,0,0-1.18-.1,10.23,10.23,0,0,0-2.87.31l.78-1.29.24-1.38a9.48,9.48,0,0,0,2.09,1.53,8.51,8.51,0,0,0,1.05.48,9.51,9.51,0,0,0,2.64.61Z"/><path class="cls-4" d="M313.63,77a1.5,1.5,0,0,1-1.95-.78,1.43,1.43,0,0,1,.72-1.7,1.55,1.55,0,0,1,.29-.14,1.64,1.64,0,0,1,.28-.07,1.44,1.44,0,0,1,1.67.85A1.48,1.48,0,0,1,313.63,77Z"/><path class="cls-4" d="M313.3,74.8l-.4.14-.4.14c0-.18-.06-.37-.1-.58a9.55,9.55,0,0,0-.9-2.52l-.22-.41A9.73,9.73,0,0,0,309.11,69l1.54-.41,1.91-.22a6.6,6.6,0,0,0-.48,2.93c0,.14,0,.27,0,.41a6.93,6.93,0,0,0,.86,2.56C313.09,74.5,313.21,74.67,313.3,74.8Z"/><path class="cls-4" d="M325.7,70.18a1.5,1.5,0,0,1-2,.68,1.45,1.45,0,0,1-.57-1.75,1.73,1.73,0,0,1,.14-.31,2.4,2.4,0,0,1,.18-.26,1.46,1.46,0,0,1,1.81-.42A1.49,1.49,0,0,1,325.7,70.18Z"/><path class="cls-4" d="M324,68.73l-.21.37-.21.37c-.14-.12-.29-.24-.46-.36a13.5,13.5,0,0,0-2.3-1.43,14.85,14.85,0,0,0-2.62-1c-.3-.08-.57-.15-.83-.2l.59-.69.57-1c.13.18.28.37.46.58a10.86,10.86,0,0,0,4.45,3.16Z"/><path class="cls-4" d="M303.93,43.61a1.59,1.59,0,1,1-2-.76A1.5,1.5,0,0,1,303.93,43.61Z"/><path class="cls-4" d="M303.12,44.74l-.4.14-.4.15a8.7,8.7,0,0,1,.83,2,9,9,0,0,1,0,4.72L305,51.2l1.41-.69a13.1,13.1,0,0,1-1.85-1.92,6.54,6.54,0,0,1-1.07-1.68A5.52,5.52,0,0,1,303.12,44.74Z"/><path class="cls-4" d="M322.09,46.18a1.45,1.45,0,0,1-1.86.18,1.37,1.37,0,0,1-.24-.18,1.56,1.56,0,0,1-.26-2.08,1.58,1.58,0,0,1,2.36,2.08Z"/><path class="cls-4" d="M320.71,46a6,6,0,0,0-.48.36,9,9,0,0,0-1.84,2A9.13,9.13,0,0,0,317.16,51a8.85,8.85,0,0,0-.31,1.73l-.9-2c-.9-.28-1.34-.51-1.32-.71s.15-.2.43-.29.31-.11.49-.19A8.9,8.9,0,0,0,319.78,46a5.8,5.8,0,0,0,.29-.52l.32.28Z"/><path class="cls-4" d="M303.81,77.12A1.59,1.59,0,0,1,300.87,76a1.46,1.46,0,0,1,1.68-.82,2,2,0,0,1,.59.24A1.43,1.43,0,0,1,303.81,77.12Z"/><path class="cls-4" d="M305.93,69.88a13.76,13.76,0,0,0-1.91,3,13.46,13.46,0,0,0-.88,2.56q-.08.3-.12.57l-.4-.15-.39-.15c.1-.15.21-.32.32-.51a9.36,9.36,0,0,0,1-2.49,10.66,10.66,0,0,0,.25-1.36,9.4,9.4,0,0,0,0-2.08l1.22.32Z"/><path class="cls-4" d="M296.38,75.18a1.59,1.59,0,0,1-2.21-2.24,1.45,1.45,0,0,1,1.85-.06,1.59,1.59,0,0,1,.24.2,1.69,1.69,0,0,1,.22.26A1.44,1.44,0,0,1,296.38,75.18Z"/><path class="cls-4" d="M301.5,69.3c-.24.12-.51.25-.79.41a13.31,13.31,0,0,0-2.38,1.66,13.1,13.1,0,0,0-1.85,2c-.13.17-.25.32-.35.48l-.3-.31-.3-.3a5.28,5.28,0,0,0,.49-.33A10.17,10.17,0,0,0,298,71a10,10,0,0,0,1.46-2.35,1.2,1.2,0,0,0,.09-.21q.1-.24.18-.45l.28.24.6.52Z"/><path class="cls-4" d="M288.69,62.62a1.58,1.58,0,0,1,.59,3.09,1.5,1.5,0,0,1-1.66-1.29A1.48,1.48,0,0,1,288.69,62.62Z"/><path class="cls-4" d="M289.67,63.6l.08.41.08.42a16.55,16.55,0,0,1,3.19-.81,16.17,16.17,0,0,1,3.66-.12l-.33-.76-.21-1.19a10.18,10.18,0,0,1-3.21,1.61A10.33,10.33,0,0,1,289.67,63.6Z"/><path class="cls-4" d="M293.59,49.35a1.58,1.58,0,1,1-2,.71A1.49,1.49,0,0,1,293.59,49.35Z"/><path class="cls-4" d="M293.72,50.74l-.2.37-.21.37a9.51,9.51,0,0,1,3,1.41,9.65,9.65,0,0,1,2.53,2.66l.59-1.21.67-1.18a9.18,9.18,0,0,1-3.57-.68A9.49,9.49,0,0,1,293.72,50.74Z"/><path class="cls-4" d="M324.87,51.89a1.43,1.43,0,0,1-1.8-.39,1.65,1.65,0,0,1-.19-.27,1.23,1.23,0,0,1-.14-.31,1.43,1.43,0,0,1,.56-1.75,1.58,1.58,0,0,1,1.57,2.72Z"/><path class="cls-4" d="M323.62,51.29l-.55.21a13.08,13.08,0,0,0-2.39,1.27A12.57,12.57,0,0,0,319.16,54l-.09.08-1.27.62-.21-.37c-.08-.12-.15-.24-.22-.37l1.27-.81.05,0a13.64,13.64,0,0,0,4.05-2.16l.46-.37.21.37Z"/><path class="cls-4" d="M294.32,70a.78.78,0,0,1-.22.12,1.25,1.25,0,0,1-.81,0,1.67,1.67,0,0,1-1.07-1,1.51,1.51,0,0,1,.7-2,1.45,1.45,0,0,1,1.74.66,2.44,2.44,0,0,1,.14.28l.05.12A1.5,1.5,0,0,1,294.32,70Z"/><path class="cls-4" d="M293.45,68.14l.16.39.16.39a12.25,12.25,0,0,1,3-1.41,11.69,11.69,0,0,1,3.32-.53l-.23-1-.68-1.3a8.29,8.29,0,0,1-5.71,3.43Z"/><path class="cls-4" d="M309.53,79.26a1.59,1.59,0,0,1-3.15,0,1.44,1.44,0,0,1,1.24-1.36,1.86,1.86,0,0,1,.34,0,2.09,2.09,0,0,1,.35,0A1.43,1.43,0,0,1,309.53,79.26Z"/><path class="cls-4" d="M308.19,74.44a19.87,19.87,0,0,0,.12,3.46c0,.2,0,.39.07.58h-.85l.09-.58a18.09,18.09,0,0,0,.1-3.46,16.75,16.75,0,0,0-.33-2.44c-.14-.66-.3-1.26-.46-1.77l1,0,.88.07c-.14.51-.27,1.09-.38,1.73A22.81,22.81,0,0,0,308.19,74.44Z"/><path class="cls-4" d="M328.69,60.5A1.49,1.49,0,0,1,327.25,62a1.52,1.52,0,0,1-1.34-1.61,2.2,2.2,0,0,1,0-.36,1.44,1.44,0,0,1,1.39-1.17A1.49,1.49,0,0,1,328.69,60.5Z"/><path class="cls-4" d="M326.53,60v.43c0,.14,0,.28,0,.42l-.58-.08a25.49,25.49,0,0,0-3.46-.23c-.72,0-1.41,0-2.06.09-.81.07-1.57.17-2.24.29l.09-.73c0-.25,0-.51-.05-.76.67.16,1.43.32,2.25.44.63.09,1.31.16,2,.21a24.55,24.55,0,0,0,3.46,0Z"/><path class="cls-4" d="M289.45,59a1.59,1.59,0,1,0-1.22-1.71A1.48,1.48,0,0,0,289.45,59Z"/><path class="cls-4" d="M289.58,57.84l0-.42.05-.42a16.8,16.8,0,0,0,8.24.2l-.07,1.08c0,.35,0,.7,0,1a18.21,18.21,0,0,0-4.18-1.26A18,18,0,0,0,289.58,57.84Z"/><path class="cls-4" d="M320.6,76.35a1.5,1.5,0,0,1-2.1-.14,1.45,1.45,0,0,1,.16-1.84,1.75,1.75,0,0,1,.24-.23,2.29,2.29,0,0,1,.29-.18,1.45,1.45,0,0,1,1.81.33A1.49,1.49,0,0,1,320.6,76.35Z"/><path class="cls-4" d="M319.61,74.37l-.34.26-.33.26-.28-.52a16.14,16.14,0,0,0-2-2.8,16.34,16.34,0,0,0-1.74-1.65,14.89,14.89,0,0,0-1.66-1.17l1-.67.8-.51c.2.5.45,1.08.76,1.68a17.87,17.87,0,0,0,1.2,2A19.13,19.13,0,0,0,319.19,74Z"/><path class="cls-4" d="M294.92,45.53a1.58,1.58,0,1,0,.4-2.07A1.48,1.48,0,0,0,294.92,45.53Z"/><path class="cls-4" d="M296.3,45.44l.34-.25.34-.26a11.86,11.86,0,0,0,2.38,3.31,12,12,0,0,0,4.12,2.61l-1.8.89L299.81,53a9.19,9.19,0,0,0-3.51-7.53Z"/><path class="cls-5" d="M312.66,55.66a1.57,1.57,0,1,1-1.56-1.56A1.56,1.56,0,0,1,312.66,55.66Z"/><path class="cls-5" d="M304.87,52.6A1.56,1.56,0,1,1,303.31,51,1.56,1.56,0,0,1,304.87,52.6Z"/><path class="cls-5" d="M302.75,63.11a1.57,1.57,0,1,1-1.57-1.56A1.57,1.57,0,0,1,302.75,63.11Z"/><path class="cls-5" d="M313.17,64.16a1.57,1.57,0,1,1-1.56-1.56A1.56,1.56,0,0,1,313.17,64.16Z"/><circle class="cls-5" cx="316.42" cy="58.45" r="1.56"/><circle class="cls-5" cx="311.21" cy="50.21" r="1.04"/><circle class="cls-5" cx="307.47" cy="68.39" r="1.04"/><circle class="cls-5" cx="298.52" cy="57.23" r="1.04"/><path class="cls-5" d="M308.92,59.18a1,1,0,1,1-1-1A1,1,0,0,1,308.92,59.18Z"/><path class="cls-6" d="M294.1,70.15a1.25,1.25,0,0,1-.81,0c.35,0,.69-.1,1-.17A.78.78,0,0,1,294.1,70.15Z"/><path class="cls-6" d="M328.69,60.5A1.49,1.49,0,0,1,327.25,62a1.44,1.44,0,0,1-1.32-1.25,25.49,25.49,0,0,0-3.46-.23c-.72,0-1.41,0-2.06.09a11.35,11.35,0,0,1-.33,2,8.51,8.51,0,0,0,1.05.48,9.51,9.51,0,0,0,2.64.61,1.44,1.44,0,0,1,1.64-.89,1.59,1.59,0,0,1-.79,3.05,1.45,1.45,0,0,1-1-1.56,10.24,10.24,0,0,0-2.6-.76,9.89,9.89,0,0,0-1.18-.1,12.53,12.53,0,0,1-.83,2,10.86,10.86,0,0,0,4.45,3.16,1.46,1.46,0,0,1,1.81-.42,1.59,1.59,0,0,1-1.56,2.74,1.45,1.45,0,0,1-.57-1.75,13.5,13.5,0,0,0-2.3-1.43,14.85,14.85,0,0,0-2.62-1,12.77,12.77,0,0,1-2.42,2.59,17.87,17.87,0,0,0,1.2,2A19.13,19.13,0,0,0,319.19,74a1.45,1.45,0,0,1,1.81.33,1.59,1.59,0,0,1-2.5,1.92,1.45,1.45,0,0,1,.16-1.84,16.14,16.14,0,0,0-2-2.8,16.34,16.34,0,0,0-1.74-1.65,12.09,12.09,0,0,1-2.81,1.4c0,.14,0,.27,0,.41a6.93,6.93,0,0,0,.86,2.56,1.44,1.44,0,0,1,1.67.85,1.58,1.58,0,0,1-3,1.06,1.43,1.43,0,0,1,.72-1.7,9.55,9.55,0,0,0-.9-2.52l-.22-.41a12.48,12.48,0,0,1-2.82.44,22.81,22.81,0,0,0-.27,2.43,19.87,19.87,0,0,0,.12,3.46,1.43,1.43,0,0,1,1.22,1.36,1.59,1.59,0,0,1-3.15,0,1.44,1.44,0,0,1,1.24-1.36,18.09,18.09,0,0,0,.1-3.46,16.75,16.75,0,0,0-.33-2.44,12.48,12.48,0,0,1-2.69-.41,12.29,12.29,0,0,0-.68,1.26,13.46,13.46,0,0,0-.88,2.56,1.43,1.43,0,0,1,.67,1.71A1.59,1.59,0,0,1,300.87,76a1.46,1.46,0,0,1,1.68-.82,9.36,9.36,0,0,0,1-2.49,10.66,10.66,0,0,0,.25-1.36,12.53,12.53,0,0,1-3.13-1.61,13.31,13.31,0,0,0-2.38,1.66,13.1,13.1,0,0,0-1.85,2,1.44,1.44,0,0,1-.1,1.84,1.59,1.59,0,0,1-2.21-2.24,1.45,1.45,0,0,1,1.85-.06A10.17,10.17,0,0,0,298,71a10,10,0,0,0,1.46-2.35l-.13-.12.22-.09.46-.21a23,23,0,0,0,10.86-11.06,20.37,20.37,0,0,0,1.45-9.42l.27.1a9.36,9.36,0,0,0,.62-1,9.72,9.72,0,0,0,.43-1,1.45,1.45,0,0,1-.4-1.82A1.59,1.59,0,0,1,316,45.7a1.45,1.45,0,0,1-1.82.51,5.22,5.22,0,0,0-.58.76,5.33,5.33,0,0,0-.54,1.1,12.67,12.67,0,0,1,2.54,1.5A8.9,8.9,0,0,0,319.78,46a1.44,1.44,0,0,1,0-1.86,1.58,1.58,0,0,1,2.36,2.08,1.45,1.45,0,0,1-1.86.18,9,9,0,0,0-1.84,2A9.13,9.13,0,0,0,317.16,51a13.33,13.33,0,0,1,1.53,2,13.64,13.64,0,0,0,4.05-2.16,1.43,1.43,0,0,1,.56-1.75,1.58,1.58,0,0,1,1.57,2.72,1.43,1.43,0,0,1-1.8-.39,13.08,13.08,0,0,0-2.39,1.27A12.57,12.57,0,0,0,319.16,54a12.26,12.26,0,0,1,.94,2.54,4.61,4.61,0,0,0,1.26.14,4.91,4.91,0,0,0,2.31-.66,1.47,1.47,0,0,1,1-1.65,1.59,1.59,0,0,1,.79,3,1.46,1.46,0,0,1-1.65-.91,6.34,6.34,0,0,0-2.25.57,6,6,0,0,0-1.22.73,12.53,12.53,0,0,1,.13,1.75c0,.12,0,.25,0,.37.63.09,1.31.16,2,.21a24.55,24.55,0,0,0,3.46,0,1.44,1.44,0,0,1,1.39-1.17A1.49,1.49,0,0,1,328.69,60.5Z"/><ellipse class="cls-7" cx="301.18" cy="54.28" rx="3.47" ry="2.36" transform="translate(109.35 292.73) rotate(-61.4)"/><path class="cls-7" d="M300.59,61.12c-.06,1-.66,1.8-1.34,1.76s-1.2-.88-1.14-1.89.65-1.8,1.34-1.76S300.64,60.12,300.59,61.12Z"/><path class="cls-8" d="M315.14,91.08a6.26,6.26,0,0,0-6,5.11,107.81,107.81,0,0,1-15.05.12c-3.1-.2-6-.53-8.79-.92q0-.8,0-1.59a54.67,54.67,0,0,0-.54-7.62A27.55,27.55,0,0,1,290,83a27.84,27.84,0,0,1,9.78-2.45A6.3,6.3,0,0,0,307,84.49c3.23-.84,5.07-4.48,4.12-8.13s-4.33-5.93-7.56-5.09c-2.94.77-4.73,3.86-4.31,7.17a21.44,21.44,0,0,1-10.06,2.85,20.78,20.78,0,0,1-5.46-.59,53.31,53.31,0,0,0-4.06-11,57,57,0,0,1,6.57-5.12A57.68,57.68,0,0,1,296.6,59a6.24,6.24,0,0,0,7.8,1.72c2.89-1.66,3.7-5.66,1.82-8.93s-5.76-4.56-8.65-2.89a6.24,6.24,0,0,0-2.41,7.61,58.84,58.84,0,0,1-10,6.24,59.91,59.91,0,0,1-7.61,3.14,53.78,53.78,0,0,0-6.66-8.9,39.16,39.16,0,0,1,13.34-20.28,6.27,6.27,0,0,0,8.06-.79c2.21-2.5,1.7-6.55-1.13-9s-6.91-2.5-9.11,0a6.28,6.28,0,0,0,.23,8.1A38.48,38.48,0,0,1,264,50.68a53.19,53.19,0,0,0-11-6.54,25.25,25.25,0,0,1,2.33-4.77,25.53,25.53,0,0,1,2.53-3.3,6.28,6.28,0,0,0,7.9-2.22c1.7-2.86.46-6.75-2.79-8.68s-7.25-1.17-9,1.7a6.31,6.31,0,0,0,1.71,7.91,38.14,38.14,0,0,1-1.84,4.11,40.34,40.34,0,0,1-2.68,4.49c-.4-.16-.8-.32-1.21-.46a53.47,53.47,0,0,0-15-3.25,46.32,46.32,0,0,1-2.51-22.21,6.27,6.27,0,0,0,5.38-5.9c0-3.33-3.06-6-6.83-6s-6.83,2.71-6.83,6a6.3,6.3,0,0,0,5.54,5.93,41.58,41.58,0,0,1-1.9,22.13,53.62,53.62,0,0,0-14.39,2.81,20.92,20.92,0,0,1-1.71-3.31,23.34,23.34,0,0,1-1.62-6.71c2.95-1.53,4.47-4.75,3.43-7.6-1.15-3.13-4.95-4.62-8.49-3.32s-5.49,4.88-4.34,8a6.25,6.25,0,0,0,7,3.7,37.17,37.17,0,0,1,2.43,6.38,36.53,36.53,0,0,1,.84,3.76,53.49,53.49,0,0,0-11.58,6.33,50.82,50.82,0,0,1-5.69-4.78,51.23,51.23,0,0,1-9.18-12.09,6.28,6.28,0,0,0,.71-8c-2-2.64-6.1-2.92-9.09-.62s-3.77,6.31-1.74,8.95a6.3,6.3,0,0,0,8,1.32,39.57,39.57,0,0,1,11.9,19.36c-.58.52-1.15,1.06-1.7,1.62a54.4,54.4,0,0,0-7.4,9.22,39.3,39.3,0,0,1-3.9-1.34,40.57,40.57,0,0,1-10.13-5.91,6.27,6.27,0,0,0-2.54-7.67c-2.92-1.6-6.76-.22-8.58,3.09s-.91,7.29,2,8.89a6.29,6.29,0,0,0,7.84-2,41.53,41.53,0,0,1,10.43,5.35c1.14.81,2.18,1.64,3.14,2.47a53.74,53.74,0,0,0-6.1,17.77,71.3,71.3,0,0,1-8.41.23,71.76,71.76,0,0,1-11.56-1.29c-.08-3.32-2.3-6.11-5.32-6.42-3.32-.35-6.32,2.41-6.72,6.16s2,7.08,5.29,7.42a6.29,6.29,0,0,0,6.49-5,77.93,77.93,0,0,1,19.74,3c-.11,1.45-.17,2.91-.17,4.39a54.16,54.16,0,0,0,1,10.26,44.89,44.89,0,0,1-23.47,7.46,6.28,6.28,0,0,0-6.85-4.25c-3.27.63-5.34,4.15-4.63,7.85s3.95,6.19,7.22,5.56a6.25,6.25,0,0,0,4.77-6.36,69.58,69.58,0,0,1,24.75-3.38,53.58,53.58,0,0,0,6.28,12.85,36.73,36.73,0,0,1-4.18,2.86,35.92,35.92,0,0,1-8.31,3.51,6.27,6.27,0,0,0-7.52-2.85c-3.09,1.26-4.46,5.1-3,8.6a7.11,7.11,0,0,0,4.63,4.26,5.56,5.56,0,0,0,3.53-.19,4.94,4.94,0,0,0,1-.52,6.54,6.54,0,0,0,2.26-7.54,51.38,51.38,0,0,1,8.25-3.4,50.74,50.74,0,0,1,5.78-1.44,52.79,52.79,0,0,0,5.45,6c.18.18.37.36.55.52a44.72,44.72,0,0,1-14.92,18.19,6.27,6.27,0,0,0-8,.27c-2.37,2.34-2.14,6.41.51,9.1s6.72,3,9.09.61a6.25,6.25,0,0,0,.41-8A59.39,59.39,0,0,1,199.58,138a53.92,53.92,0,0,0,13.55,7,39.54,39.54,0,0,1-1.06,5.89,41.11,41.11,0,0,1-4.52,10.82,6.29,6.29,0,0,0-7.27,3.54c-1.2,3.11.67,6.73,4.19,8.09s7.34,0,8.55-3.17a6.25,6.25,0,0,0-2.91-7.44A58.57,58.57,0,0,1,214,151.67a56.7,56.7,0,0,1,2.92-5.47A53,53,0,0,0,228.56,148,76.83,76.83,0,0,1,230,158.56a76.07,76.07,0,0,1-.47,15,6.24,6.24,0,0,0-5.35,5.89c0,3.33,3.05,6,6.83,6s6.83-2.7,6.83-6a6.25,6.25,0,0,0-5.32-5.89,88.67,88.67,0,0,1,.68-25.57,53.45,53.45,0,0,0,12.22-1.89c.33.58.66,1.18,1,1.79a41.54,41.54,0,0,1,3.88,10.91,6.29,6.29,0,0,0-3.13,7.38c1.12,3.14,4.91,4.66,8.47,3.4s5.52-4.84,4.41-8a6.31,6.31,0,0,0-7.26-3.72,28.86,28.86,0,0,1-3.73-11.1c-.07-.59-.13-1.18-.16-1.76A53.53,53.53,0,0,0,261.1,139a67.22,67.22,0,0,1,7.54,7.14,68,68,0,0,1,8.81,12.16,6.29,6.29,0,0,0-.68,8c2,2.64,6.11,2.92,9.1.62s3.77-6.3,1.73-9a6.25,6.25,0,0,0-7.82-1.41,82.54,82.54,0,0,1-9.54-11.62,81.64,81.64,0,0,1-5.19-8.81,55.63,55.63,0,0,0,4.35-3.91,54.66,54.66,0,0,0,6.14-7.34,63.44,63.44,0,0,1,11.39,4.39,62.53,62.53,0,0,1,10,6.22,6.27,6.27,0,0,0,2.46,7.59c2.89,1.65,6.75.33,8.63-2.94s1-7.27-1.86-8.93A6.28,6.28,0,0,0,298.3,133,47.33,47.33,0,0,1,279,119.25a52.49,52.49,0,0,0,3.63-8.5A44,44,0,0,1,299,114.48a6.28,6.28,0,0,0,4.36,6.77c3.23.83,6.61-1.46,7.55-5.11s-.91-7.29-4.14-8.12a6.28,6.28,0,0,0-7.11,3.86,41.14,41.14,0,0,1-11.43-2.62,40.44,40.44,0,0,1-4.57-2.11,52.33,52.33,0,0,0,1.44-8.45c2.81-.22,5.8-.37,8.94-.37a110.44,110.44,0,0,1,15,1,6.26,6.26,0,0,0,5.73,5.44c3.33.09,6.12-2.89,6.23-6.66S318.47,91.18,315.14,91.08Z"/><path class="cls-9" d="M382.92,43.13a1.44,1.44,0,0,0-1.39,1.18,23.36,23.36,0,0,1-3.47,0c-.72,0-1.4-.12-2-.21,0-.12,0-.24,0-.36a12.68,12.68,0,0,0-.13-1.76,6,6,0,0,1,1.22-.73,6.35,6.35,0,0,1,2.25-.56,1.45,1.45,0,0,0,1.65.9,1.59,1.59,0,0,0-.79-3,1.46,1.46,0,0,0-1,1.65,4.88,4.88,0,0,1-2.32.66,4.61,4.61,0,0,1-1.26-.14,12.26,12.26,0,0,0-.94-2.54A12.8,12.8,0,0,1,376.25,37a13.63,13.63,0,0,1,2.39-1.26,1.44,1.44,0,0,0,1.8.39,1.59,1.59,0,0,0-1.57-2.73,1.45,1.45,0,0,0-.56,1.76,13.64,13.64,0,0,1-4.05,2.16,12.77,12.77,0,0,0-1.54-2,9.06,9.06,0,0,1,3.08-4.68,1.45,1.45,0,0,0,1.86-.18,1.58,1.58,0,0,0-2.36-2.08,1.44,1.44,0,0,0,.05,1.87,9.07,9.07,0,0,1-1.74,2.07,8.78,8.78,0,0,1-2.49,1.54,12.33,12.33,0,0,0-2.55-1.51,6.21,6.21,0,0,1,.54-1.1,5.83,5.83,0,0,1,.58-.76,1.45,1.45,0,0,0,1.82-.51,1.58,1.58,0,0,0-2.7-1.61,1.44,1.44,0,0,0,.39,1.82c-.12.31-.26.63-.42.95a11.43,11.43,0,0,1-.62,1l-.28-.11a12.43,12.43,0,0,0-3.45-.75,10.57,10.57,0,0,1-.49-1.77,10.72,10.72,0,0,1-.09-3.35,1.44,1.44,0,0,0,1.24-1.36,1.59,1.59,0,0,0-3.15,0,1.44,1.44,0,0,0,1.28,1.36,9.54,9.54,0,0,1,0,3.44,8.64,8.64,0,0,1-.45,1.67,12.53,12.53,0,0,0-3.32.65,4.92,4.92,0,0,1-.39-.76,5.2,5.2,0,0,1-.38-1.55,1.39,1.39,0,1,0-1.16-2.52,1.5,1.5,0,0,0-1,1.85,1.45,1.45,0,0,0,1.62.85,8.52,8.52,0,0,1,.57,1.47c.08.3.14.58.19.87a12.13,12.13,0,0,0-2.67,1.46,12.74,12.74,0,0,1-1.31-1.1,11.8,11.8,0,0,1-2.12-2.79,1.45,1.45,0,0,0,.16-1.85,1.59,1.59,0,0,0-2.5,1.92,1.45,1.45,0,0,0,1.85.3,9.08,9.08,0,0,1,2.11,2.77,9.7,9.7,0,0,1,.64,1.7l-.4.37A12.92,12.92,0,0,0,353,37a7.41,7.41,0,0,1-.9-.31,9.2,9.2,0,0,1-2.34-1.36,1.44,1.44,0,0,0-.59-1.77,1.59,1.59,0,0,0-1.51,2.76,1.45,1.45,0,0,0,1.81-.45,9.27,9.27,0,0,1,2.4,1.23c.27.19.51.38.73.57a12.46,12.46,0,0,0-1.41,4.1,17.36,17.36,0,0,1-1.94.05,16.78,16.78,0,0,1-2.66-.29,1.39,1.39,0,1,0-2.78-.07A1.49,1.49,0,0,0,345,43.21a1.47,1.47,0,0,0,1.5-1.15,18,18,0,0,1,2.67.26,15.35,15.35,0,0,1,1.88.43c0,.33,0,.67,0,1a12.19,12.19,0,0,0,.22,2.36,10.33,10.33,0,0,1-2.74,1.29,10.11,10.11,0,0,1-2.67.43,1.46,1.46,0,0,0-1.58-1,1.59,1.59,0,0,0,.6,3.1,1.46,1.46,0,0,0,1.1-1.47,16.63,16.63,0,0,1,2.64-.62,16.1,16.1,0,0,1,3.07-.16,12.49,12.49,0,0,0,1.44,3,7.32,7.32,0,0,1-1,.66,8.28,8.28,0,0,1-1.92.81,1.43,1.43,0,0,0-1.73-.65,1.48,1.48,0,0,0-.7,2,1.61,1.61,0,0,0,1.06,1,1.28,1.28,0,0,0,.82,0,.94.94,0,0,0,.22-.12,1.52,1.52,0,0,0,.52-1.74,12.23,12.23,0,0,1,1.9-.79,13.7,13.7,0,0,1,1.34-.33,11.06,11.06,0,0,0,1.26,1.39l.12.12a10.43,10.43,0,0,1-3.44,4.2,1.45,1.45,0,0,0-1.86.06,1.59,1.59,0,0,0,2.22,2.24A1.44,1.44,0,0,0,352,57.6a13.25,13.25,0,0,1,1.86-2A14,14,0,0,1,356.26,54a12.57,12.57,0,0,0,3.13,1.62,9.12,9.12,0,0,1-1.29,3.85,1.45,1.45,0,0,0-1.67.82,1.58,1.58,0,0,0,2.93,1.13,1.42,1.42,0,0,0-.67-1.71,13.88,13.88,0,0,1,.89-2.57,13.44,13.44,0,0,1,.67-1.26,12.07,12.07,0,0,0,2.7.42,18.11,18.11,0,0,1,.23,5.9,1.44,1.44,0,0,0-1.24,1.36,1.59,1.59,0,0,0,3.15,0,1.44,1.44,0,0,0-1.23-1.36,20.8,20.8,0,0,1,.16-5.9,11.94,11.94,0,0,0,2.82-.43c.08.13.15.27.23.41a9.72,9.72,0,0,1,.89,2.52,1.44,1.44,0,0,0-.72,1.7,1.59,1.59,0,0,0,3-1.06,1.46,1.46,0,0,0-1.67-.86,6.62,6.62,0,0,1-.87-2.56l0-.4a12.3,12.3,0,0,0,2.81-1.4,14.5,14.5,0,0,1,1.74,1.64,16.13,16.13,0,0,1,2,2.81,1.44,1.44,0,0,0-.16,1.84,1.59,1.59,0,0,0,2.5-1.92,1.45,1.45,0,0,0-1.81-.33,19.13,19.13,0,0,1-2.2-2.68,21.81,21.81,0,0,1-1.2-2,12.25,12.25,0,0,0,1-.9,12.92,12.92,0,0,0,1.42-1.7,14.85,14.85,0,0,1,2.62,1,14.16,14.16,0,0,1,2.3,1.43,1.45,1.45,0,0,0,.57,1.75,1.59,1.59,0,0,0,1.56-2.74,1.44,1.44,0,0,0-1.8.42,10.87,10.87,0,0,1-2.4-1.27,11.54,11.54,0,0,1-2.07-1.89,11.68,11.68,0,0,0,.84-2,9.76,9.76,0,0,1,3.78.86,1.44,1.44,0,0,0,1,1.56A1.59,1.59,0,0,0,381,47a1.45,1.45,0,0,0-1.64.89,9.51,9.51,0,0,1-2.64-.61,10.3,10.3,0,0,1-1.05-.48,11.68,11.68,0,0,0,.33-2c.65,0,1.34-.09,2.06-.09a27.51,27.51,0,0,1,3.47.22,1.44,1.44,0,0,0,1.32,1.26,1.59,1.59,0,0,0,.09-3.15Z"/><path class="cls-10" d="M172.79,157c0,.15,0,.3,0,.44,0,.32,0,.63-.08.94a15.4,15.4,0,0,1-.45,2.38c-.09.35-.2.68-.31,1a14.69,14.69,0,0,1-1.08,2.39,15,15,0,0,1-2.77,3.6c-.4.38-.82.74-1.25,1.08s-.74.55-1.13.8a15.09,15.09,0,0,1-3.49,1.65c-.32.11-.65.21-1,.29a15.2,15.2,0,0,1-3.47.47h-.62q-.35,0-.69,0a15.6,15.6,0,0,1-3.3-.57c-.35-.11-.7-.22-1-.35a15.2,15.2,0,0,1-5.3-3.33l-.16-.15a15.7,15.7,0,0,1-1.51-1.74c-.23-.3-.44-.62-.65-.94a15,15,0,0,1-1.7-3.67,13.86,13.86,0,0,1-.47-1.95,14.67,14.67,0,0,1-.22-2.91c0-.42,0-.83.07-1.24s.09-.77.16-1.15a15.29,15.29,0,0,1,1.82-5c.16-.27.33-.54.5-.8a14.74,14.74,0,0,1,2.15-2.57c.16-.16.32-.31.49-.45a15.79,15.79,0,0,1,1.45-1.14,15.19,15.19,0,0,1,3.32-1.73,7,7,0,0,1,.69-.24,14.86,14.86,0,0,1,4.08-.72c.3,0,.6,0,.91,0s.74,0,1.11.06a15.22,15.22,0,0,1,4.22,1l.33.14.51.22a15.31,15.31,0,0,1,3.09,1.91,15,15,0,0,1,1.5,1.37c.15.15.29.3.43.46a15,15,0,0,1,1.83,2.55c.2.35.39.7.56,1.07a15.35,15.35,0,0,1,1.09,3.14,13.37,13.37,0,0,1,.27,1.56A15.32,15.32,0,0,1,172.79,157Z"/><ellipse class="cls-10" cx="157.88" cy="133.43" rx="1.71" ry="1.93" transform="translate(21.48 288.75) rotate(-88.91)"/><path class="cls-10" d="M158.39,134.4h-1a11.87,11.87,0,0,1-2.61,10.44l2.93-.29,3,.31a13.38,13.38,0,0,1-2.36-5.63A13.16,13.16,0,0,1,158.39,134.4Z"/><path class="cls-10" d="M167.57,139.92a1.77,1.77,0,0,1-2.24.59l-.3-.16a2.32,2.32,0,0,1-.3-.22,1.78,1.78,0,0,1-.44-2.25,1.95,1.95,0,0,1,3.28,2Z"/><path class="cls-10" d="M165.87,140a5.2,5.2,0,0,0-.54.52,6.54,6.54,0,0,0-1.42,2.25,8.68,8.68,0,0,0-.31,4.74l-.72-.22-1.8-.56c-.33-.34-.65-.69-1-1l.27-.19a13.15,13.15,0,0,0,2.71-2.54l.31-.42a12.88,12.88,0,0,0,.79-1.26,11.75,11.75,0,0,0,.54-1.15c.09-.24.18-.47.25-.69l.45.27C165.57,139.81,165.72,139.9,165.87,140Z"/><path class="cls-10" d="M179,154.46a1.76,1.76,0,0,1-2-1.15,1.6,1.6,0,0,1-.11-.33,2.56,2.56,0,0,1-.05-.27,1.8,1.8,0,0,1,1.26-2,1.95,1.95,0,0,1,.9,3.76Z"/><path class="cls-10" d="M177.71,153.31H177a8.1,8.1,0,0,0-2.78.64,7.72,7.72,0,0,0-1.51.87c-.16.11-.3.23-.43.33l-2.51.09h-.05l-.12-.51v0c0-.16-.08-.32-.11-.47l2.77-1,.19,0a5.89,5.89,0,0,0,4.4-.55,6.77,6.77,0,0,0,.66-.41l.12.51Z"/><path class="cls-10" d="M179.91,163.43a1.83,1.83,0,0,1-2.17,1.4,1.76,1.76,0,0,1-1.19-1.93,1.59,1.59,0,0,1,.07-.38,1.55,1.55,0,0,1,.13-.36,1.78,1.78,0,0,1,2-1A1.83,1.83,0,0,1,179.91,163.43Z"/><path class="cls-10" d="M177.48,162.21c0,.17-.09.34-.14.51s-.09.33-.14.5c-.19-.11-.41-.21-.65-.32a12.64,12.64,0,0,0-3.17-1c-.51-.08-1-.13-1.44-.16a12.62,12.62,0,0,0-3.54.32l1-1.56.33-1.7a11.43,11.43,0,0,0,2.53,1.93,11.73,11.73,0,0,0,1.28.62,11.22,11.22,0,0,0,3.22.8A6.72,6.72,0,0,0,177.48,162.21Z"/><path class="cls-10" d="M164,178.25a1.83,1.83,0,0,1-2.38-1,1.78,1.78,0,0,1,.92-2.07,2.48,2.48,0,0,1,.37-.17l.34-.08a1.78,1.78,0,0,1,2,1.09A1.82,1.82,0,0,1,164,178.25Z"/><path class="cls-10" d="M163.64,175.56l-.49.17-.49.16c0-.21-.07-.45-.12-.71a12,12,0,0,0-1-3.11q-.13-.27-.27-.51a12,12,0,0,0-2.6-3.18l1.89-.47,2.35-.22a8.34,8.34,0,0,0-.66,3.58c0,.17,0,.33,0,.5a8.16,8.16,0,0,0,1,3.16Q163.48,175.32,163.64,175.56Z"/><path class="cls-10" d="M179,170.19a1.83,1.83,0,0,1-2.45.78,1.77,1.77,0,0,1-.66-2.16,3.14,3.14,0,0,1,.18-.37,1.86,1.86,0,0,1,.23-.32,1.78,1.78,0,0,1,2.22-.47A1.84,1.84,0,0,1,179,170.19Z"/><path class="cls-10" d="M176.94,168.38l-.27.44c-.08.15-.17.3-.26.45-.17-.15-.36-.3-.56-.46a17.09,17.09,0,0,0-2.79-1.81,17.43,17.43,0,0,0-3.19-1.3c-.36-.11-.7-.2-1-.27l.73-.83c.24-.4.49-.79.73-1.18q.23.33.54.72a13.46,13.46,0,0,0,5.4,4Z"/><path class="cls-10" d="M152.87,137.08a1.95,1.95,0,1,1-2.38-1A1.83,1.83,0,0,1,152.87,137.08Z"/><path class="cls-10" d="M151.85,138.45l-.5.17-.49.17a10.75,10.75,0,0,1,1,2.45,11.19,11.19,0,0,1-.09,5.8l2.29-.62,1.74-.82a15.62,15.62,0,0,1-2.23-2.39,8.24,8.24,0,0,1-1.27-2.09A6.68,6.68,0,0,1,151.85,138.45Z"/><path class="cls-10" d="M175.09,140.65a1.76,1.76,0,0,1-2.28.18,2.1,2.1,0,0,1-.3-.22l-.25-.27a1.8,1.8,0,0,1,0-2.3,1.84,1.84,0,0,1,2.58.05A1.82,1.82,0,0,1,175.09,140.65Z"/><path class="cls-10" d="M173.41,140.41q-.28.18-.6.42a11.27,11.27,0,0,0-2.3,2.39,11.51,11.51,0,0,0-2,5.39l-1.06-2.47c-1.09-.37-1.63-.67-1.6-.91s.19-.25.54-.34l.61-.22a10.79,10.79,0,0,0,5.26-4.33c.15-.24.28-.45.38-.64l.38.35Z"/><path class="cls-10" d="M151.94,178.2a1.94,1.94,0,0,1-3.57-1.46,1.76,1.76,0,0,1,2.07-1,1.65,1.65,0,0,1,.36.11,1.55,1.55,0,0,1,.36.19A1.75,1.75,0,0,1,151.94,178.2Z"/><path class="cls-10" d="M154.71,169.35a17.28,17.28,0,0,0-1.55,2.08,15.46,15.46,0,0,0-.85,1.53,16,16,0,0,0-1.15,3.12c-.06.25-.11.48-.16.7l-.48-.2-.48-.19.4-.61a11.8,11.8,0,0,0,1.34-3,11.06,11.06,0,0,0,.33-1.66,11.67,11.67,0,0,0,0-2.55l1.49.42Z"/><path class="cls-10" d="M142.87,175.64a1.95,1.95,0,0,1-2.66-2.8,1.78,1.78,0,0,1,2.28,0,1.75,1.75,0,0,1,.29.26,1.85,1.85,0,0,1,.25.32A1.76,1.76,0,0,1,142.87,175.64Z"/><path class="cls-10" d="M149.3,168.55a9.75,9.75,0,0,0-1,.48,16.72,16.72,0,0,0-5.29,4.36l-.44.57-.35-.38-.36-.37.61-.4A12.5,12.5,0,0,0,145,170.6a13.18,13.18,0,0,0,1.85-2.85l.12-.26c.08-.2.16-.38.22-.55l.34.31.72.65Z"/><path class="cls-10" d="M133.73,160a1.95,1.95,0,1,1-1.35,2.2A1.83,1.83,0,0,1,133.73,160Z"/><path class="cls-10" d="M134.91,161.27l.09.51.09.52a20,20,0,0,1,3.93-.92,19.67,19.67,0,0,1,4.5-.07l-.39-.94-.23-1.46a12.75,12.75,0,0,1-4,1.9A12.51,12.51,0,0,1,134.91,161.27Z"/><path class="cls-10" d="M140.05,143.89a1.94,1.94,0,1,1-2.44.82A1.82,1.82,0,0,1,140.05,143.89Z"/><path class="cls-10" d="M140.18,145.59l-.26.45-.26.45a11.74,11.74,0,0,1,6.67,5.12l.75-1.47.85-1.43a11.57,11.57,0,0,1-7.75-3.12Z"/><path class="cls-10" d="M178.37,147.73a1.76,1.76,0,0,1-2.2-.53,2.75,2.75,0,0,1-.23-.33,2.05,2.05,0,0,1-.16-.38,1.78,1.78,0,0,1,.72-2.14,1.95,1.95,0,0,1,1.87,3.38Z"/><path class="cls-10" d="M176.85,147l-.68.24a16.23,16.23,0,0,0-4.85,2.92l-.11.09-1.58.74-.25-.46c-.09-.15-.17-.3-.25-.46l1.57-1,.06,0a16.94,16.94,0,0,0,5-2.56l.57-.44.25.45C176.68,146.66,176.77,146.81,176.85,147Z"/><path class="cls-10" d="M140.47,169.28a1.38,1.38,0,0,1-.27.14,1.5,1.5,0,0,1-1,0,2,2,0,0,1-1.29-1.22,1.84,1.84,0,0,1,.91-2.42,1.77,1.77,0,0,1,2.11.85,2.16,2.16,0,0,1,.17.34,1,1,0,0,1,.05.16A1.84,1.84,0,0,1,140.47,169.28Z"/><path class="cls-10" d="M139.45,166.93l.18.49.19.48a14.62,14.62,0,0,1,3.68-1.66,14.41,14.41,0,0,1,4.09-.58l-.25-1.19-.82-1.61a10.12,10.12,0,0,1-3.22,2.85A10.27,10.27,0,0,1,139.45,166.93Z"/><path class="cls-10" d="M158.92,181a2,2,0,0,1-3.87-.08,1.77,1.77,0,0,1,1.55-1.63,1.87,1.87,0,0,1,.42,0,2.84,2.84,0,0,1,.42.05A1.78,1.78,0,0,1,158.92,181Z"/><path class="cls-10" d="M157.38,175a25.5,25.5,0,0,0,.06,4.25c0,.25.05.49.08.72l-1,0,.12-.71a22.16,22.16,0,0,0,.21-4.25,21.37,21.37,0,0,0-.35-3c-.16-.82-.34-1.55-.53-2.19h1.27l1.08.09c-.18.63-.36,1.34-.51,2.12A26.52,26.52,0,0,0,157.38,175Z"/><path class="cls-10" d="M182.86,158.38a1.84,1.84,0,0,1-1.8,1.85,1.77,1.77,0,0,1-1.59-1.57,2.16,2.16,0,0,1,0-.44,2.12,2.12,0,0,1,.06-.44,1.76,1.76,0,0,1,1.73-1.41A1.83,1.83,0,0,1,182.86,158.38Z"/><path class="cls-10" d="M180.22,157.73l0,.52,0,.52-.7-.11a32.3,32.3,0,0,0-4.24-.36c-.89,0-1.73,0-2.53.06-1,.07-1.93.17-2.76.3,0-.3.09-.59.13-.89s0-.62,0-.94a26.73,26.73,0,0,0,2.75.59c.77.13,1.6.24,2.48.31a30.61,30.61,0,0,0,4.25.05Z"/><path class="cls-10" d="M134.74,155.58a2,2,0,1,0-1.45-2.13A1.84,1.84,0,0,0,134.74,155.58Z"/><path class="cls-10" d="M134.93,154.21l.06-.52.07-.52A20.35,20.35,0,0,0,140,154a20.58,20.58,0,0,0,5.22-.41l-.11,1.33-.07,1.29a22.13,22.13,0,0,0-10.06-2Z"/><path class="cls-10" d="M172.56,177.64a1.84,1.84,0,0,1-2.57-.22,1.76,1.76,0,0,1,.24-2.25,2.68,2.68,0,0,1,.3-.28l.36-.21a1.76,1.76,0,0,1,2.21.44A1.83,1.83,0,0,1,172.56,177.64Z"/><path class="cls-10" d="M171.4,175.19l-.42.31-.42.31c-.1-.21-.21-.42-.33-.64a19.22,19.22,0,0,0-2.43-3.49,18.29,18.29,0,0,0-2.09-2.06,19.13,19.13,0,0,0-2-1.48l1.25-.8,1-.61a21,21,0,0,0,.89,2.09,22.07,22.07,0,0,0,1.42,2.52,23.88,23.88,0,0,0,2.63,3.34C171.07,174.86,171.23,175,171.4,175.19Z"/><path class="cls-10" d="M141.77,139.22a1.95,1.95,0,1,0,.54-2.52A1.83,1.83,0,0,0,141.77,139.22Z"/><path class="cls-10" d="M143.47,139.15l.42-.31.42-.31a14.41,14.41,0,0,0,7.84,7.42L149.92,147l-2.32,1.47a11.24,11.24,0,0,0-4.13-9.32Z"/><path class="cls-11" d="M163.3,152.07a1.92,1.92,0,1,1-1.88-1.95A1.92,1.92,0,0,1,163.3,152.07Z"/><path class="cls-11" d="M153.82,148.13a1.92,1.92,0,1,1-1.88-1.95A1.92,1.92,0,0,1,153.82,148.13Z"/><path class="cls-11" d="M151,161a1.92,1.92,0,1,1-1.89-1.95A1.93,1.93,0,0,1,151,161Z"/><path class="cls-11" d="M163.73,162.51a1.92,1.92,0,1,1-1.88-1.95A1.91,1.91,0,0,1,163.73,162.51Z"/><path class="cls-11" d="M169.77,155.62a1.92,1.92,0,1,1-1.88-2A1.91,1.91,0,0,1,169.77,155.62Z"/><path class="cls-11" d="M162.92,145.37a1.26,1.26,0,0,1-1.3,1.25,1.28,1.28,0,1,1,1.3-1.25Z"/><path class="cls-11" d="M157.91,167.6a1.28,1.28,0,1,1-2.55,0,1.28,1.28,0,0,1,2.55,0Z"/><path class="cls-11" d="M147.19,153.69a1.28,1.28,0,0,1-1.3,1.25,1.28,1.28,0,1,1,1.3-1.25Z"/><circle class="cls-11" cx="157.36" cy="156.28" r="1.28" transform="translate(-37.05 49.55) rotate(-16.04)"/><path class="cls-12" d="M140.2,169.42a1.5,1.5,0,0,1-1,0c.42,0,.85-.1,1.27-.17A1.38,1.38,0,0,1,140.2,169.42Z"/><path class="cls-12" d="M182.86,158.38a1.84,1.84,0,0,1-1.8,1.85,1.77,1.77,0,0,1-1.59-1.57,32.3,32.3,0,0,0-4.24-.36c-.89,0-1.73,0-2.53.06a15.4,15.4,0,0,1-.45,2.38,11.73,11.73,0,0,0,1.28.62,11.22,11.22,0,0,0,3.22.8,1.78,1.78,0,0,1,2-1,1.95,1.95,0,0,1-1,3.72,1.76,1.76,0,0,1-1.19-1.93,12.64,12.64,0,0,0-3.17-1c-.51-.08-1-.13-1.44-.16a14.69,14.69,0,0,1-1.08,2.39,13.46,13.46,0,0,0,5.4,4,1.78,1.78,0,0,1,2.22-.47,1.94,1.94,0,0,1-2,3.32,1.77,1.77,0,0,1-.66-2.16,17.09,17.09,0,0,0-2.79-1.81,17.43,17.43,0,0,0-3.19-1.3,15.68,15.68,0,0,1-1.78,2c-.4.38-.82.74-1.25,1.08a22.07,22.07,0,0,0,1.42,2.52,23.88,23.88,0,0,0,2.63,3.34,1.76,1.76,0,0,1,2.21.44,1.95,1.95,0,0,1-3.11,2.3,1.76,1.76,0,0,1,.24-2.25,19.22,19.22,0,0,0-2.43-3.49,18.29,18.29,0,0,0-2.09-2.06,15.09,15.09,0,0,1-3.49,1.65c0,.17,0,.33,0,.5a8.16,8.16,0,0,0,1,3.16,1.78,1.78,0,0,1,2,1.09,1.95,1.95,0,0,1-3.66,1.23,1.78,1.78,0,0,1,.92-2.07,12,12,0,0,0-1-3.11q-.13-.27-.27-.51a15.2,15.2,0,0,1-3.47.47,26.52,26.52,0,0,0-.39,3,25.5,25.5,0,0,0,.06,4.25,1.78,1.78,0,0,1,1.48,1.7,2,2,0,0,1-3.87-.08,1.77,1.77,0,0,1,1.55-1.63,22.16,22.16,0,0,0,.21-4.25,21.37,21.37,0,0,0-.35-3,15.6,15.6,0,0,1-3.3-.57,15.46,15.46,0,0,0-.85,1.53,16,16,0,0,0-1.15,3.12,1.75,1.75,0,0,1,.78,2.12,1.94,1.94,0,0,1-3.57-1.46,1.76,1.76,0,0,1,2.07-1,11.8,11.8,0,0,0,1.34-3,11.06,11.06,0,0,0,.33-1.66,15.4,15.4,0,0,1-3.79-2.05,16.72,16.72,0,0,0-5.29,4.36,1.76,1.76,0,0,1-.16,2.25,1.95,1.95,0,0,1-2.66-2.8,1.78,1.78,0,0,1,2.28,0A12.5,12.5,0,0,0,145,170.6a13.18,13.18,0,0,0,1.85-2.85l-.16-.15.28-.11.56-.24c9.59-4.15,13.59-13.32,13.59-13.32a25.17,25.17,0,0,0,2-11.53l.33.14a12.88,12.88,0,0,0,.79-1.26,11.75,11.75,0,0,0,.54-1.15,1.78,1.78,0,0,1-.44-2.25,1.95,1.95,0,0,1,3.28,2,1.77,1.77,0,0,1-2.24.59,6.54,6.54,0,0,0-1.42,2.25,15.31,15.31,0,0,1,3.09,1.91,10.79,10.79,0,0,0,5.26-4.33,1.8,1.8,0,0,1,0-2.3,1.84,1.84,0,0,1,2.58.05,1.82,1.82,0,0,1,.27,2.56,1.76,1.76,0,0,1-2.28.18,11.27,11.27,0,0,0-2.3,2.39,11.08,11.08,0,0,0-1.58,3.28,15,15,0,0,1,1.83,2.55,16.94,16.94,0,0,0,5-2.56,1.78,1.78,0,0,1,.72-2.14,1.95,1.95,0,0,1,1.87,3.38,1.76,1.76,0,0,1-2.2-.53,16.23,16.23,0,0,0-4.85,2.92,15.35,15.35,0,0,1,1.09,3.14,5.89,5.89,0,0,0,4.4-.55,1.8,1.8,0,0,1,1.26-2,1.95,1.95,0,0,1,.9,3.76,1.76,1.76,0,0,1-2-1.15,8.1,8.1,0,0,0-2.78.64,7.72,7.72,0,0,0-1.51.87,15.32,15.32,0,0,1,.11,2.16c0,.15,0,.3,0,.44.77.13,1.6.24,2.48.31a30.61,30.61,0,0,0,4.25.05,1.76,1.76,0,0,1,1.73-1.41A1.83,1.83,0,0,1,182.86,158.38Z"/><ellipse class="cls-7" cx="149.25" cy="150.11" rx="4.26" ry="2.89" transform="translate(-55.07 205.43) rotate(-60.31)"/><path class="cls-7" d="M148.36,158.49c-.09,1.24-.84,2.19-1.68,2.13s-1.45-1.12-1.36-2.35.85-2.19,1.69-2.13S148.45,157.26,148.36,158.49Z"/><rect class="cls-13" x="200.23" y="65.67" width="109.03" height="147.67" rx="2.09"/><rect class="cls-14" x="203.37" y="69.13" width="102.11" height="140.76"/><path class="cls-15" d="M305.94,210.35h-103V68.67h103Zm-102.11-.92H305V69.59H203.83Z"/><rect class="cls-13" x="240.66" y="60.96" width="27.44" height="6.7" rx="0.84"/><path class="cls-16" d="M274,106.09H215.92a1.36,1.36,0,0,1-1.35-1.36h0a1.36,1.36,0,0,1,1.35-1.35H274a1.36,1.36,0,0,1,1.36,1.35h0A1.36,1.36,0,0,1,274,106.09Z"/><path class="cls-16" d="M274.55,111.31H216.5a1.36,1.36,0,0,1-1.36-1.36h0a1.36,1.36,0,0,1,1.36-1.35h58.05A1.36,1.36,0,0,1,275.9,110h0A1.36,1.36,0,0,1,274.55,111.31Z"/><rect class="cls-16" x="214.71" y="114.01" width="40.03" height="2.71" rx="1.1"/><g class="cls-17"><rect class="cls-16" x="279.65" y="104.33" width="14.45" height="9.9"/></g><polygon class="cls-15" points="280.95 106.29 286.69 115.25 296.82 98.41 286.92 110.59 280.95 106.29"/><path class="cls-16" d="M274.22,131.76H216.17a1.36,1.36,0,0,1-1.36-1.35h0a1.36,1.36,0,0,1,1.36-1.36h58.05a1.36,1.36,0,0,1,1.36,1.36h0A1.36,1.36,0,0,1,274.22,131.76Z"/><path class="cls-16" d="M274.8,137H216.74a1.36,1.36,0,0,1-1.35-1.35h0a1.36,1.36,0,0,1,1.35-1.36H274.8a1.36,1.36,0,0,1,1.35,1.36h0A1.36,1.36,0,0,1,274.8,137Z"/><rect class="cls-16" x="214.96" y="139.69" width="40.03" height="2.71" rx="1.1"/><g class="cls-17"><rect class="cls-16" x="279.9" y="130" width="14.45" height="9.9"/></g><polygon class="cls-15" points="281.2 131.96 286.94 140.92 297.07 124.09 287.17 136.27 281.2 131.96"/><path class="cls-16" d="M274.47,157.85H216.41a1.36,1.36,0,0,1-1.35-1.36h0a1.36,1.36,0,0,1,1.35-1.35h58.06a1.36,1.36,0,0,1,1.35,1.35h0A1.36,1.36,0,0,1,274.47,157.85Z"/><path class="cls-16" d="M275,163.07H217a1.36,1.36,0,0,1-1.36-1.36h0a1.36,1.36,0,0,1,1.36-1.35H275a1.36,1.36,0,0,1,1.36,1.35h0A1.36,1.36,0,0,1,275,163.07Z"/><rect class="cls-16" x="215.2" y="165.78" width="40.03" height="2.71" rx="1.1"/><g class="cls-17"><rect class="cls-16" x="280.14" y="156.09" width="14.45" height="9.9"/></g><polygon class="cls-15" points="281.44 158.05 287.19 167.01 297.32 150.18 287.42 162.35 281.44 158.05"/><rect class="cls-16" x="215.31" y="181.23" width="60.76" height="2.71" rx="1.35"/><path class="cls-16" d="M275.29,189.15H217.23a1.36,1.36,0,0,1-1.35-1.35h0a1.36,1.36,0,0,1,1.35-1.36h58.06a1.36,1.36,0,0,1,1.35,1.36h0A1.36,1.36,0,0,1,275.29,189.15Z"/><rect class="cls-16" x="215.45" y="191.86" width="40.03" height="2.71" rx="1.1"/><g class="cls-17"><rect class="cls-16" x="280.39" y="182.17" width="14.45" height="9.9"/></g><polygon class="cls-15" points="281.69 184.13 287.43 193.09 297.56 176.26 287.66 188.44 281.69 184.13"/><path class="cls-15" d="M220.39,86.51a6.1,6.1,0,0,1-.44,2.41,4,4,0,0,1-1.24,1.62l1.69,1.31-1.11,1L217.2,91.2a4.28,4.28,0,0,1-2.52-.24,3.67,3.67,0,0,1-1.29-.95,4.37,4.37,0,0,1-.84-1.5,6.23,6.23,0,0,1-.3-2V86a6.23,6.23,0,0,1,.3-2,4.47,4.47,0,0,1,.83-1.51,3.67,3.67,0,0,1,1.29-1,4,4,0,0,1,1.64-.33,4.11,4.11,0,0,1,1.67.33,3.67,3.67,0,0,1,1.29,1A4.47,4.47,0,0,1,220.1,84a6.52,6.52,0,0,1,.29,2ZM218.68,86a4.26,4.26,0,0,0-.62-2.51,2,2,0,0,0-1.75-.86,2.24,2.24,0,0,0-1,.22,2.06,2.06,0,0,0-.74.64,3.34,3.34,0,0,0-.47,1.06A5.71,5.71,0,0,0,214,86v.51a5.71,5.71,0,0,0,.17,1.45A3,3,0,0,0,214.6,89a2,2,0,0,0,.74.65,2.11,2.11,0,0,0,1,.22,2,2,0,0,0,1.75-.86,4.34,4.34,0,0,0,.61-2.52Z"/><path class="cls-15" d="M229.29,81.35v6.56a3.54,3.54,0,0,1-.29,1.47,2.9,2.9,0,0,1-.78,1.06,3.41,3.41,0,0,1-1.17.64,4.69,4.69,0,0,1-1.42.21,4.81,4.81,0,0,1-1.46-.21,3.19,3.19,0,0,1-1.16-.64,2.77,2.77,0,0,1-.77-1.06,3.71,3.71,0,0,1-.28-1.47V81.35h1.7v6.56a2.76,2.76,0,0,0,.14.91,1.56,1.56,0,0,0,1,1,2.83,2.83,0,0,0,1.63,0,1.49,1.49,0,0,0,.62-.37,1.57,1.57,0,0,0,.39-.62,2.76,2.76,0,0,0,.14-.91V81.35Z"/><path class="cls-15" d="M236.44,88.87h-3.79l-.8,2.28h-1.77l3.7-9.8h1.53l3.71,9.8h-1.78Zm-3.32-1.37H236l-1.42-4.07Z"/><path class="cls-15" d="M243.73,87.38h-1.9v3.77h-1.7v-9.8h3.45a5.29,5.29,0,0,1,1.5.2,2.91,2.91,0,0,1,1.11.56,2.46,2.46,0,0,1,.69.93,3.14,3.14,0,0,1,.24,1.28,2.72,2.72,0,0,1-.48,1.64,3,3,0,0,1-1.32,1l2.2,4.09v.08H245.7ZM241.83,86h1.75a2.36,2.36,0,0,0,.8-.12,1.59,1.59,0,0,0,.58-.34,1.39,1.39,0,0,0,.34-.51,1.67,1.67,0,0,0,.11-.65,2.07,2.07,0,0,0-.1-.68,1.37,1.37,0,0,0-.9-.87,2.88,2.88,0,0,0-.83-.11h-1.75Z"/><path class="cls-15" d="M254.22,88.87h-3.8l-.79,2.28h-1.77l3.7-9.8h1.53l3.71,9.8H255ZM250.9,87.5h2.84l-1.42-4.07Z"/><path class="cls-15" d="M265.68,91.15H264l-4.37-7v7h-1.7v-9.8h1.7l4.38,7v-7h1.69Z"/><path class="cls-15" d="M274.58,82.73h-3.06v8.42h-1.69V82.73h-3V81.35h7.77Z"/><path class="cls-15" d="M277.66,91.15H276v-9.8h1.69Z"/><path class="cls-15" d="M287.53,91.15h-1.7l-4.37-7v7h-1.7v-9.8h1.7l4.38,7v-7h1.69Z"/><path class="cls-15" d="M295.27,86.78h-4v3H296v1.36h-6.41v-9.8h6.36v1.38h-4.65v2.7h4Z"/><path class="cls-18" d="M134.43,64.85A1.44,1.44,0,0,0,133,66a24.84,24.84,0,0,1-3.48,0c-.71,0-1.39-.12-2-.21v-.37a12.79,12.79,0,0,0-.12-1.76,7.28,7.28,0,0,1,1.21-.73,6.62,6.62,0,0,1,2.26-.56,1.44,1.44,0,0,0,1.65.9,1.48,1.48,0,0,0,1-1.87,1.5,1.5,0,0,0-1.74-1.18,1.48,1.48,0,0,0-1,1.66,4.93,4.93,0,0,1-2.32.65,4.74,4.74,0,0,1-1.26-.13,12.32,12.32,0,0,0-.93-2.55,13.49,13.49,0,0,1,1.51-1.18,13.14,13.14,0,0,1,2.4-1.27,1.45,1.45,0,0,0,1.8.4,1.59,1.59,0,0,0-1.58-2.73,1.44,1.44,0,0,0-.55,1.75,13.27,13.27,0,0,1-2.3,1.44,13.52,13.52,0,0,1-1.76.73A12.37,12.37,0,0,0,124.23,57a9.07,9.07,0,0,1,1.24-2.69,9,9,0,0,1,1.84-2,1.46,1.46,0,0,0,1.86-.19,1.59,1.59,0,0,0-2.37-2.08,1.45,1.45,0,0,0,0,1.87A8.59,8.59,0,0,1,125.12,54a8.78,8.78,0,0,1-2.49,1.54A13.28,13.28,0,0,0,120.08,54a5.52,5.52,0,0,1,.54-1.09,6,6,0,0,1,.58-.77,1.44,1.44,0,0,0,1.82-.51A1.59,1.59,0,0,0,120.31,50a1.47,1.47,0,0,0,.4,1.83c-.12.3-.26.62-.43,1a9.36,9.36,0,0,1-.62,1l-.27-.11a12.79,12.79,0,0,0-3.45-.75,10.29,10.29,0,0,1-.5-1.77,11,11,0,0,1-.08-3.35,1.44,1.44,0,0,0,1.24-1.36,1.59,1.59,0,0,0-3.15,0,1.46,1.46,0,0,0,1.27,1.37,9.45,9.45,0,0,1,0,3.43,10.37,10.37,0,0,1-.45,1.67,12.53,12.53,0,0,0-3.32.65,4.52,4.52,0,0,1-.4-.76,5.39,5.39,0,0,1-.37-1.55,1.46,1.46,0,0,0,.79-1.75,1.59,1.59,0,0,0-3,1.08,1.44,1.44,0,0,0,1.62.85,8.35,8.35,0,0,1,.56,1.47,7.7,7.7,0,0,1,.2.87,12.64,12.64,0,0,0-2.68,1.46,12.54,12.54,0,0,1-1.31-1.1,12.37,12.37,0,0,1-2.12-2.79,1.45,1.45,0,0,0,.17-1.85,1.59,1.59,0,0,0-2.5,1.92,1.46,1.46,0,0,0,1.85.31,9.14,9.14,0,0,1,2.1,2.76,8.56,8.56,0,0,1,.64,1.7l-.39.38a12.5,12.5,0,0,0-1.71,2.12,8.47,8.47,0,0,1-.89-.3,9.5,9.5,0,0,1-2.34-1.37,1.44,1.44,0,0,0-.59-1.77,1.59,1.59,0,0,0-1.51,2.77,1.45,1.45,0,0,0,1.8-.46,9.64,9.64,0,0,1,2.41,1.23c.26.19.5.38.73.57a12.24,12.24,0,0,0-1.41,4.1,17.26,17.26,0,0,1-1.94.06,16.84,16.84,0,0,1-2.67-.3,1.45,1.45,0,0,0-1.23-1.48,1.59,1.59,0,0,0-.32,3.13A1.45,1.45,0,0,0,98,63.78a18.29,18.29,0,0,1,2.68.26,18,18,0,0,1,1.88.43c0,.33,0,.67,0,1a12.37,12.37,0,0,0,.22,2.37A10.35,10.35,0,0,1,100,69.13a10.61,10.61,0,0,1-2.67.44,1.44,1.44,0,0,0-1.58-1,1.58,1.58,0,0,0,.59,3.09,1.44,1.44,0,0,0,1.1-1.47,16.31,16.31,0,0,1,5.71-.78,12.22,12.22,0,0,0,1.45,3,8.44,8.44,0,0,1-1,.66,8.74,8.74,0,0,1-1.92.81,1.45,1.45,0,0,0-1.74-.66,1.5,1.5,0,0,0-.7,2,1.64,1.64,0,0,0,1.07,1,1.22,1.22,0,0,0,.82,0,.94.94,0,0,0,.22-.12,1.51,1.51,0,0,0,.52-1.74,11.86,11.86,0,0,1,1.9-.78,11.33,11.33,0,0,1,1.34-.33,11.71,11.71,0,0,0,1.25,1.38.71.71,0,0,0,.13.12,10.25,10.25,0,0,1-3.44,4.2,1.46,1.46,0,0,0-1.86.06,1.59,1.59,0,0,0,2.22,2.24,1.46,1.46,0,0,0,.09-1.84,13.76,13.76,0,0,1,1.86-2,13.58,13.58,0,0,1,2.38-1.67,12.23,12.23,0,0,0,3.13,1.62,9.39,9.39,0,0,1-.25,1.36,9.59,9.59,0,0,1-1,2.5,1.45,1.45,0,0,0-1.68.81,1.59,1.59,0,0,0,2.94,1.14,1.44,1.44,0,0,0-.67-1.72,13.57,13.57,0,0,1,.89-2.56,12.29,12.29,0,0,1,.67-1.26,12.57,12.57,0,0,0,2.7.41,18.25,18.25,0,0,1,.33,2.44,17.24,17.24,0,0,1-.11,3.46,1.44,1.44,0,0,0-1.23,1.36,1.59,1.59,0,0,0,3.15,0,1.45,1.45,0,0,0-1.23-1.36,20,20,0,0,1-.11-3.46,18.78,18.78,0,0,1,.27-2.43,12.57,12.57,0,0,0,2.82-.44l.22.41a9.92,9.92,0,0,1,.9,2.52,1.43,1.43,0,0,0-.72,1.7,1.49,1.49,0,0,0,2,.79,1.51,1.51,0,0,0,1-1.85,1.45,1.45,0,0,0-1.68-.85,6.93,6.93,0,0,1-.86-2.56c0-.14,0-.28,0-.41A12.37,12.37,0,0,0,122,75.9a16.34,16.34,0,0,1,1.74,1.65,15.62,15.62,0,0,1,2,2.8,1.45,1.45,0,0,0-.15,1.84,1.58,1.58,0,0,0,2.49-1.92,1.43,1.43,0,0,0-1.8-.33,19.13,19.13,0,0,1-2.2-2.68,18.79,18.79,0,0,1-1.2-2,10.69,10.69,0,0,0,1-.9,12,12,0,0,0,1.42-1.69,13.82,13.82,0,0,1,2.63,1,14.61,14.61,0,0,1,2.3,1.43,1.44,1.44,0,0,0,.57,1.75,1.58,1.58,0,0,0,1.56-2.73,1.44,1.44,0,0,0-1.81.41,10.74,10.74,0,0,1-2.39-1.26,10.9,10.9,0,0,1-2.07-1.9,12.17,12.17,0,0,0,.84-2,10.16,10.16,0,0,1,1.18.11,9.87,9.87,0,0,1,2.6.75,1.44,1.44,0,0,0,1,1.56,1.59,1.59,0,0,0,.79-3,1.44,1.44,0,0,0-1.64.89,9.73,9.73,0,0,1-2.64-.6,10.29,10.29,0,0,1-1.05-.49,12.4,12.4,0,0,0,.33-2c.65,0,1.34-.08,2.06-.09a25.49,25.49,0,0,1,3.46.23A1.45,1.45,0,0,0,134.34,68a1.59,1.59,0,0,0,.09-3.15Z"/></svg>