<svg id="Layer_3" data-name="Layer 3" xmlns="http://www.w3.org/2000/svg" viewBox="0 0 172.25 175.52"><defs><style>.cls-1,.cls-2,.cls-3{fill:#543d96;}.cls-2{opacity:0.36;}.cls-3{opacity:0.18;}</style></defs><path class="cls-1" d="M135.27,85.78c0,.49,0,1-.05,1.47-.05,1-.13,2-.25,3.06a48.8,48.8,0,0,1-1.47,7.78q-.45,1.68-1,3.3a49.69,49.69,0,0,1-3.51,7.79,48.36,48.36,0,0,1-3.25,5.1,50.51,50.51,0,0,1-5.81,6.67,52.65,52.65,0,0,1-4.08,3.53c-1.19.92-2.43,1.79-3.7,2.61a49.82,49.82,0,0,1-11.39,5.4c-1,.35-2.13.66-3.21.93A49.19,49.19,0,0,1,86.21,135c-.67,0-1.34,0-2,0s-1.52,0-2.28-.1A49.44,49.44,0,0,1,71.15,133c-1.17-.34-2.31-.71-3.44-1.13A49.73,49.73,0,0,1,50.38,121l-.5-.49A50.11,50.11,0,0,1,45,114.82c-.75-1-1.45-2-2.12-3.08a49.79,49.79,0,0,1-5.58-12,51.57,51.57,0,0,1-1.53-6.38,50.5,50.5,0,0,1-.72-9.5q0-2.05.24-4c.12-1.28.3-2.54.52-3.78a49.76,49.76,0,0,1,6-16.32c.52-.9,1.07-1.78,1.64-2.64a50.34,50.34,0,0,1,7-8.39c.52-.5,1-1,1.6-1.47a49.89,49.89,0,0,1,15.57-9.37c.74-.28,1.5-.54,2.26-.79a49.56,49.56,0,0,1,13.35-2.34c1,0,2-.06,3,0,1.23,0,2.44.09,3.65.2a49.59,49.59,0,0,1,13.76,3.27c.37.14.73.29,1.1.45.56.23,1.11.47,1.65.73a50.49,50.49,0,0,1,15,10.71c.47.49.93,1,1.39,1.5a50,50,0,0,1,6,8.33c.66,1.14,1.26,2.3,1.83,3.49A49.8,49.8,0,0,1,134,73.65a47.7,47.7,0,0,1,.88,5.08A49.85,49.85,0,0,1,135.27,85.78Z"/><ellipse class="cls-1" cx="86.58" cy="8.86" rx="5.58" ry="6.31" transform="matrix(0.02, -1, 1, 0.02, 76.07, 95.25)"/><path class="cls-1" d="M88.22,12l-1.7,0-1.71,0a38.81,38.81,0,0,1,.27,16.13,39.3,39.3,0,0,1-8.78,18l9.59-1,9.73,1A43.07,43.07,0,0,1,88.22,12Z"/><path class="cls-1" d="M118.22,30.06A5.82,5.82,0,0,1,110.88,32a6,6,0,0,1-1-.5,7.13,7.13,0,0,1-1-.73,5.83,5.83,0,0,1-1.44-7.33c1.63-2.62,5.35-3.25,8.31-1.41S119.84,27.45,118.22,30.06Z"/><path class="cls-1" d="M112.65,30.28c-.58.5-1.18,1.07-1.77,1.69a22.93,22.93,0,0,0-2.39,3,22.27,22.27,0,0,0-2.24,4.36,28.49,28.49,0,0,0-1,15.47l-2.35-.72L97,52.28l-3.16-3.37.88-.6a43.19,43.19,0,0,0,5.41-4.49A42.34,42.34,0,0,0,103.57,40c.35-.45.69-.9,1-1.38a38.7,38.7,0,0,0,2.56-4.1,36.06,36.06,0,0,0,1.77-3.77c.32-.77.59-1.52.84-2.25l1.44.9Z"/><path class="cls-1" d="M155.46,77.56a5.82,5.82,0,0,1-6.55-3.74,8.14,8.14,0,0,1-.35-1.09c-.07-.3-.12-.6-.16-.89a5.87,5.87,0,0,1,4.11-6.55c3-.72,6.08,1.45,6.9,4.84S158.45,76.84,155.46,77.56Z"/><path class="cls-1" d="M151.35,73.81c-.69,0-1.51,0-2.44,0a25.67,25.67,0,0,0-9.08,2.09,25.27,25.27,0,0,0-4.92,2.82c-.52.38-1,.75-1.4,1.1l-8.19.27h-.18l-.4-1.65a.43.43,0,0,0,0-.11c-.13-.52-.25-1-.37-1.54l9.07-3.32.61.17a19,19,0,0,0,5,.64,19.89,19.89,0,0,0,9.34-2.45,22.22,22.22,0,0,0,2.15-1.33l.4,1.65C151.08,72.71,151.21,73.26,151.35,73.81Z"/><path class="cls-1" d="M158.51,106.86c-.93,3.36-4.09,5.42-7.06,4.59a5.79,5.79,0,0,1-3.91-6.33,6.75,6.75,0,0,1,.23-1.24,7.14,7.14,0,0,1,.42-1.15,5.82,5.82,0,0,1,6.64-3.44C157.8,100.11,159.45,103.5,158.51,106.86Z"/><path class="cls-1" d="M150.59,102.9l-.46,1.63-.45,1.64c-.64-.34-1.35-.69-2.14-1a41.17,41.17,0,0,0-26.61-2.71c1.07-1.69,2.16-3.39,3.24-5.08l1-5.55a38,38,0,0,0,8.28,6.31,38.74,38.74,0,0,0,4.18,2,37.91,37.91,0,0,0,10.51,2.62C149.07,102.82,149.87,102.87,150.59,102.9Z"/><path class="cls-1" d="M106.54,155.29c-3.31,1.1-6.78-.37-7.76-3.29a5.79,5.79,0,0,1,3-6.76,7.17,7.17,0,0,1,1.2-.53,7.64,7.64,0,0,1,1.12-.28,5.83,5.83,0,0,1,6.64,3.56C111.73,150.91,109.84,154.18,106.54,155.29Z"/><path class="cls-1" d="M105.39,146.5l-1.61.54-1.62.54c-.08-.71-.2-1.49-.37-2.34a38.2,38.2,0,0,0-3.39-10.15c-.28-.57-.58-1.13-.87-1.67A39,39,0,0,0,89,123l6.18-1.53,7.68-.7a27.08,27.08,0,0,0-2.16,11.7c0,.53.06,1.07.12,1.63a26.83,26.83,0,0,0,3.25,10.31C104.58,145.28,105,146,105.39,146.5Z"/><path class="cls-1" d="M155.43,128.94c-1.79,3-5.38,4.14-8,2.56a5.77,5.77,0,0,1-2.14-7,7.21,7.21,0,0,1,.58-1.23,7,7,0,0,1,.75-1,5.79,5.79,0,0,1,7.27-1.53C156.52,122.24,157.22,125.94,155.43,128.94Z"/><path class="cls-1" d="M148.83,123l-.87,1.46-.87,1.46c-.57-.48-1.17-1-1.82-1.49a58.45,58.45,0,0,0-19.55-10.17c-1.17-.35-2.28-.65-3.3-.89l2.4-2.71,2.37-3.85c.51.72,1.1,1.51,1.78,2.35a43.65,43.65,0,0,0,17.63,13C147.4,122.51,148.15,122.79,148.83,123Z"/><path class="cls-1" d="M70.2,20.8c1,2.91-.86,6.19-4.16,7.32s-6.78-.3-7.78-3.22.86-6.19,4.15-7.32S69.19,17.89,70.2,20.8Z"/><path class="cls-1" d="M66.85,25.25l-1.61.55-1.61.56a34.48,34.48,0,0,1,3.19,8,36.65,36.65,0,0,1-.27,18.93l7.46-2,5.67-2.67a52.82,52.82,0,0,1-7.27-7.82A26.23,26.23,0,0,1,68.28,34,21.69,21.69,0,0,1,66.85,25.25Z"/><path class="cls-1" d="M142.79,32.46a5.83,5.83,0,0,1-7.47.59,8.36,8.36,0,0,1-.95-.74,6.81,6.81,0,0,1-.82-.89,5.82,5.82,0,0,1-.07-7.49c2.08-2.27,5.85-2.2,8.42.15S144.87,30.18,142.79,32.46Z"/><path class="cls-1" d="M137.28,31.65c-.6.4-1.25.86-2,1.4a36.11,36.11,0,0,0-12.67,18.5,37.62,37.62,0,0,0-1.36,6.9l-3.46-8.07q-5.37-1.79-5.24-3c0-.43.64-.81,1.77-1.12.59-.19,1.25-.42,2-.71a35.45,35.45,0,0,0,10.1-6,35.74,35.74,0,0,0,7.11-8.17c.48-.76.89-1.46,1.22-2.07L136,30.5Z"/><path class="cls-1" d="M67.17,155.11c-1.17,2.85-4.73,4.09-8,2.77s-4.9-4.69-3.73-7.54a5.78,5.78,0,0,1,6.77-3.14,6.08,6.08,0,0,1,1.17.36,6.7,6.7,0,0,1,1.19.62A5.79,5.79,0,0,1,67.17,155.11Z"/><path class="cls-1" d="M76.2,126.22a52.61,52.61,0,0,0-5,6.77,48.39,48.39,0,0,0-2.79,5,52.54,52.54,0,0,0-3.74,10.19c-.21.81-.39,1.58-.54,2.3l-1.57-.64-1.58-.65c.42-.58.87-1.25,1.33-2a38.11,38.11,0,0,0,4.37-9.92,38.6,38.6,0,0,0,1.22-13.76l4.85,1.37Z"/><path class="cls-1" d="M37.54,146.76c-2.23,2.12-6,1.79-8.39-.73s-2.54-6.3-.31-8.42a5.79,5.79,0,0,1,7.44-.1,6.21,6.21,0,0,1,.95.83,7.43,7.43,0,0,1,.83,1.06A5.78,5.78,0,0,1,37.54,146.76Z"/><path class="cls-1" d="M58.52,123.59c-1,.44-2.07,1-3.21,1.56a54.64,54.64,0,0,0-9.66,6.48,54,54,0,0,0-7.59,7.77c-.53.65-1,1.27-1.43,1.87L35.45,140l-1.17-1.23c.61-.37,1.29-.8,2-1.29a41.64,41.64,0,0,0,8.08-7.24,41.43,41.43,0,0,0,6-9.3c.14-.29.27-.58.39-.85.29-.63.53-1.23.75-1.78l1.11,1L55,121.46Z"/><path class="cls-1" d="M7.66,95.81c3-.53,6,1.83,6.57,5.26s-1.38,6.64-4.41,7.17-6-1.83-6.58-5.26S4.63,96.33,7.66,95.81Z"/><path class="cls-1" d="M11.52,99.81c.1.56.2,1.12.29,1.68s.2,1.12.29,1.68a64,64,0,0,1,12.86-3A64.82,64.82,0,0,1,39.65,100c-.43-1-.86-2-1.28-3.07l-.75-4.77a41.6,41.6,0,0,1-26.1,7.7Z"/><path class="cls-1" d="M28.31,43c2.68,1.53,3.44,5.22,1.7,8.25s-5.3,4.23-8,2.7-3.44-5.23-1.7-8.25S25.64,41.49,28.31,43Z"/><path class="cls-1" d="M28.73,48.57c-.28.49-.56,1-.85,1.47L27,51.52A38.44,38.44,0,0,1,48.82,68.27l2.44-4.83,2.79-4.67a37.86,37.86,0,0,1-14.27-3A37.66,37.66,0,0,1,28.73,48.57Z"/><path class="cls-1" d="M153.5,55.58a5.77,5.77,0,0,1-7.18-1.73,6.7,6.7,0,0,1-.76-1.1,6.48,6.48,0,0,1-.52-1.22,5.79,5.79,0,0,1,2.36-7c2.69-1.48,6.25-.22,7.93,2.83S156.19,54.1,153.5,55.58Z"/><path class="cls-1" d="M148.54,53.06c-.71.23-1.45.5-2.22.79a53.26,53.26,0,0,0-9.69,4.91,51.93,51.93,0,0,0-6.16,4.61l-.36.32L125,66.08l-.82-1.49c-.28-.49-.55-1-.83-1.49L128.43,60l.21-.07a55.32,55.32,0,0,0,7.09-2.76A55,55,0,0,0,145,51.53c.65-.49,1.27-1,1.85-1.45.28.49.55,1,.83,1.49Z"/><path class="cls-1" d="M29.69,126a4.24,4.24,0,0,1-.9.46,5.1,5.1,0,0,1-3.27.12,6.59,6.59,0,0,1-4.19-4c-1.25-3.25.07-6.78,3-7.89a5.79,5.79,0,0,1,6.9,2.77,5.66,5.66,0,0,1,.56,1.13,4.91,4.91,0,0,1,.17.5A6.07,6.07,0,0,1,29.69,126Z"/><path class="cls-1" d="M26.33,118.3c.21.53.41,1.06.61,1.59s.41,1.06.61,1.58a47.82,47.82,0,0,1,12-5.42,47,47,0,0,1,13.34-1.9c-.27-1.3-.54-2.6-.82-3.89q-1.32-2.64-2.65-5.26a33.06,33.06,0,0,1-23.13,13.3Z"/><path class="cls-1" d="M89.94,164.09c-.06,3.08-2.93,5.52-6.41,5.46s-6.27-2.62-6.21-5.7a5.79,5.79,0,0,1,5.05-5.35,6.86,6.86,0,0,1,1.37-.1,7,7,0,0,1,1.39.16A5.78,5.78,0,0,1,89.94,164.09Z"/><path class="cls-1" d="M84.93,144.67a81.4,81.4,0,0,0,.2,13.89c.08.81.17,1.58.26,2.32l-3.4-.06c.13-.74.26-1.51.38-2.32a70.33,70.33,0,0,0,.69-13.87,68.28,68.28,0,0,0-1.15-9.77,71.11,71.11,0,0,0-1.72-7.14h4.13l3.54.32c-.59,2-1.16,4.36-1.65,6.9A81.19,81.19,0,0,0,84.93,144.67Z"/><path class="cls-1" d="M168.16,90.36c-.17,3.48-2.8,6.19-5.88,6a5.78,5.78,0,0,1-5.19-5.13,6.85,6.85,0,0,1-.07-1.44,6.57,6.57,0,0,1,.21-1.42,5.77,5.77,0,0,1,5.66-4.62C166,83.94,168.32,86.88,168.16,90.36Z"/><path class="cls-1" d="M159.55,88.25c0,.57-.05,1.13-.08,1.7s-.06,1.13-.08,1.7l-2.3-.38a103,103,0,0,0-13.85-1.15c-2.9-.05-5.67,0-8.27.19-3.27.21-6.3.56-9,1q.22-1.46.42-2.91c0-1-.09-2-.13-3.06,2.68.71,5.69,1.38,9,1.93,2.54.41,5.24.76,8.1,1a99.34,99.34,0,0,0,13.91.16Z"/><path class="cls-1" d="M11,81.22c3,.38,5.88-2.12,6.31-5.58s-1.7-6.57-4.76-7-5.88,2.12-6.31,5.58S7.92,80.84,11,81.22Z"/><path class="cls-1" d="M11.59,76.74l.21-1.69L12,73.36a67.72,67.72,0,0,0,16,2.76,67,67,0,0,0,17.06-1.34c-.13,1.45-.25,2.9-.38,4.35l-.23,4.21a71.79,71.79,0,0,0-32.85-6.6Z"/><path class="cls-1" d="M134.52,153.29c-2.81,2.07-6.56,1.74-8.39-.74a5.78,5.78,0,0,1,.77-7.34,6.53,6.53,0,0,1,1-.89,6.92,6.92,0,0,1,1.19-.71,5.77,5.77,0,0,1,7.2,1.44C138.11,147.53,137.32,151.21,134.52,153.29Z"/><path class="cls-1" d="M130.72,145.28l-1.37,1-1.37,1c-.33-.67-.69-1.36-1.08-2.09a63,63,0,0,0-14.77-18.12,60.52,60.52,0,0,0-6.55-4.84l4.08-2.6,3.26-2c.76,2.06,1.71,4.36,2.91,6.83a74.56,74.56,0,0,0,4.64,8.23,76.2,76.2,0,0,0,8.61,10.9C129.64,144.2,130.19,144.75,130.72,145.28Z"/><path class="cls-1" d="M33.93,27.78c1.83,2.48,5.59,2.81,8.39.74s3.59-5.76,1.76-8.24-5.59-2.8-8.39-.73S32.1,25.31,33.93,27.78Z"/><path class="cls-1" d="M39.49,27.56l1.37-1,1.37-1A47.27,47.27,0,0,0,51.55,39a47.65,47.65,0,0,0,16.3,10.76l-7.3,3.43L53,58a37,37,0,0,0-3.46-17.61A36.8,36.8,0,0,0,39.49,27.56Z"/><path class="cls-1" d="M104.27,69.77a6.27,6.27,0,1,1-6.15-6.39A6.27,6.27,0,0,1,104.27,69.77Z"/><path class="cls-1" d="M73.3,56.89a6.27,6.27,0,1,1-6.15-6.39A6.27,6.27,0,0,1,73.3,56.89Z"/><path class="cls-1" d="M64,98.88a6.27,6.27,0,1,1-6.15-6.39A6.27,6.27,0,0,1,64,98.88Z"/><path class="cls-1" d="M105.68,103.86a6.27,6.27,0,1,1-6.15-6.39A6.27,6.27,0,0,1,105.68,103.86Z"/><path class="cls-1" d="M125.42,81.34A6.27,6.27,0,1,1,119.27,75,6.27,6.27,0,0,1,125.42,81.34Z"/><path class="cls-1" d="M103,47.87a4.17,4.17,0,1,1-4.09-4.25A4.16,4.16,0,0,1,103,47.87Z"/><path class="cls-1" d="M86.66,120.48a4.17,4.17,0,1,1-4.09-4.25A4.17,4.17,0,0,1,86.66,120.48Z"/><path class="cls-1" d="M51.64,75a4.18,4.18,0,1,1-4.1-4.25A4.18,4.18,0,0,1,51.64,75Z"/><circle class="cls-1" cx="84.86" cy="83.51" r="4.17" transform="translate(-19.77 26.69) rotate(-16.04)"/><path class="cls-2" d="M28.79,129.7a5.1,5.1,0,0,1-3.27.12c1.4-.16,2.79-.35,4.17-.58A4.24,4.24,0,0,1,28.79,129.7Z"/><ellipse class="cls-3" cx="58.38" cy="66.61" rx="13.92" ry="9.45" transform="translate(-28.41 84.34) rotate(-60.31)"/><path class="cls-3" d="M55.46,94c-.29,4-2.76,7.14-5.5,6.94s-4.72-3.63-4.42-7.67S48.3,86.13,51,86.33,55.76,90,55.46,94Z"/></svg>