<svg id="Layer_2" data-name="Layer 2" xmlns="http://www.w3.org/2000/svg" viewBox="0 0 847.3 208.49"><defs><style>.cls-1{fill:#4a358c;}.cls-2{fill:#278ab1;}.cls-3{fill:none;}</style></defs><path class="cls-1" d="M174.2,57.45h17.5V81.2h23.76V57.45H233V120H215.46V96.21H191.7V120H174.2Z"/><path class="cls-1" d="M263,98.59a18,18,0,0,0,6.32,6.12,14.84,14.84,0,0,0,7.37,2.13,22.69,22.69,0,0,0,9.82-1.94A17.25,17.25,0,0,0,293,99.84l5,15.88a22.49,22.49,0,0,1-7.69,4.87A33.73,33.73,0,0,1,278,122.47a37.42,37.42,0,0,1-18.88-4.57,32.51,32.51,0,0,1-12.38-12.19,33.5,33.5,0,0,1-4.37-17,33.54,33.54,0,0,1,4.37-17A32.58,32.58,0,0,1,259.1,59.51,37.52,37.52,0,0,1,278,54.94a33.73,33.73,0,0,1,12.32,1.88A22.51,22.51,0,0,1,298,61.7l-5,15.88a17.37,17.37,0,0,0-6.44-5.07,22.69,22.69,0,0,0-9.82-1.93,14.93,14.93,0,0,0-7.37,2.12,17.6,17.6,0,0,0-8.88,16A18,18,0,0,0,263,98.59Z"/><path class="cls-1" d="M386.18,120h-20l-8.5-24.39-9,24.39h-20L304.9,57.45h18.76l15.5,45.64,3.51-8.78a48.88,48.88,0,0,0-.25-36.86h20l14,43.51,14.75-43.51h18.76Z"/><path class="cls-2" d="M438.48,57.45H456V81.2h23.76V57.45h17.5V120h-17.5V96.21H456V120H438.48Z"/><path class="cls-2" d="M510.69,71.7a30.87,30.87,0,0,1,11.76-12.19Q530.15,55,541,54.94t18.57,4.57A30.91,30.91,0,0,1,571.34,71.7a35.59,35.59,0,0,1,4.06,17,35.55,35.55,0,0,1-4.06,17,30.85,30.85,0,0,1-11.75,12.19q-7.7,4.57-18.57,4.57t-18.57-4.57a30.81,30.81,0,0,1-11.76-12.19,35.67,35.67,0,0,1-4.06-17A35.71,35.71,0,0,1,510.69,71.7ZM527.2,98.59a17.1,17.1,0,0,0,6.19,6.12,14.73,14.73,0,0,0,15.26,0,17.1,17.1,0,0,0,6.19-6.12,18.72,18.72,0,0,0,2.43-9.88,18.72,18.72,0,0,0-2.43-9.88,17.13,17.13,0,0,0-6.19-6.13,14.79,14.79,0,0,0-15.26,0,17.13,17.13,0,0,0-6.19,6.13,18.63,18.63,0,0,0-2.44,9.88A18.63,18.63,0,0,0,527.2,98.59Z"/><path class="cls-2" d="M611.92,97.9a31.58,31.58,0,0,0-5.44-2.82q-3.32-1.36-7-3a40.89,40.89,0,0,1-7-3.94A20.25,20.25,0,0,1,587,82.58a14.28,14.28,0,0,1-2.12-8,16.61,16.61,0,0,1,3.19-10.26,20.13,20.13,0,0,1,8.62-6.5,31.65,31.65,0,0,1,12.2-2.25q12.62,0,22.13,10.88l-5,13.75a62.94,62.94,0,0,0-8.13-6.62,15.58,15.58,0,0,0-8.88-3,5,5,0,0,0-3.69,1.12,4,4,0,0,0-1.06,2.88q0,2.25,2.81,3.94A56.86,56.86,0,0,0,614,82a83.4,83.4,0,0,1,8.32,4.13,24,24,0,0,1,7,5.94,14,14,0,0,1,2.81,8.94q0,7.88-3.5,12.44a19,19,0,0,1-9.25,6.51,39,39,0,0,1-12.51,1.93,38,38,0,0,1-15.63-2.93A28.93,28.93,0,0,1,581,111.59l5-14.38a34,34,0,0,0,5.94,4.44A37.43,37.43,0,0,0,599,105a20.25,20.25,0,0,0,6.62,1.25,14.78,14.78,0,0,0,5.94-1.06,3.92,3.92,0,0,0,2.44-3.94A4.05,4.05,0,0,0,611.92,97.9Z"/><path class="cls-2" d="M639.05,57.45h55v15H675.31V120h-17.5V72.45H639.05Z"/><path class="cls-2" d="M704.7,57.45h47.52V71.83h-30V81.2h26.26V95.58H722.21V105h30v15H704.7Z"/><path class="cls-2" d="M761.59,57.45H789.1q16.38,0,24.45,8.62t8.07,22.64q0,14-8.07,22.63T789.1,120H761.59Zm37.64,43.76q4.26-3.75,4.25-12.5T799.23,76.2a14.79,14.79,0,0,0-10.13-3.75h-10V105h10A14.79,14.79,0,0,0,799.23,101.21Z"/><path class="cls-1" d="M174.2,141.34h3.28v4.46h4.46v-4.46h3.29v11.73h-3.29v-4.46h-4.46v4.46H174.2Z"/><path class="cls-1" d="M188.22,144a5.8,5.8,0,0,1,2.2-2.28,7.49,7.49,0,0,1,7,0A5.76,5.76,0,0,1,199.6,144a7.1,7.1,0,0,1,0,6.39,5.79,5.79,0,0,1-2.21,2.29,7.57,7.57,0,0,1-7,0,5.83,5.83,0,0,1-2.2-2.29,7.1,7.1,0,0,1,0-6.39Zm3.1,5.05a3.19,3.19,0,0,0,1.16,1.15,2.76,2.76,0,0,0,2.86,0,3.19,3.19,0,0,0,1.16-1.15,4,4,0,0,0,0-3.71,3.19,3.19,0,0,0-1.16-1.15,2.76,2.76,0,0,0-2.86,0,3.19,3.19,0,0,0-1.16,1.15,4,4,0,0,0,0,3.71Z"/><path class="cls-1" d="M206.45,149.72a2,2,0,0,0,1.59.65,2,2,0,0,0,1.58-.65,2.76,2.76,0,0,0,.58-1.86v-6.52h3.28v6.52a5.65,5.65,0,0,1-1.34,4,5.37,5.37,0,0,1-4.1,1.43,5.2,5.2,0,0,1-4.11-1.52,5.71,5.71,0,0,1-1.34-3.93v-6.52h3.29v6.52A2.76,2.76,0,0,0,206.45,149.72Z"/><path class="cls-1" d="M221.16,148.93a6.79,6.79,0,0,0-1-.53l-1.32-.56a7.35,7.35,0,0,1-1.31-.74,3.73,3.73,0,0,1-1-1,2.68,2.68,0,0,1-.4-1.51,3.1,3.1,0,0,1,.6-1.92,3.67,3.67,0,0,1,1.62-1.22,5.94,5.94,0,0,1,2.28-.42,5.39,5.39,0,0,1,4.16,2l-.94,2.58a11.51,11.51,0,0,0-1.53-1.24,2.89,2.89,0,0,0-1.66-.57,1,1,0,0,0-.7.21.78.78,0,0,0-.2.54.89.89,0,0,0,.53.74,10.65,10.65,0,0,0,1.31.65c.51.22,1,.48,1.56.77a4.45,4.45,0,0,1,1.31,1.12,2.62,2.62,0,0,1,.53,1.68,3.73,3.73,0,0,1-.66,2.33,3.57,3.57,0,0,1-1.74,1.22,7.36,7.36,0,0,1-2.34.37,7.11,7.11,0,0,1-2.94-.56,5.32,5.32,0,0,1-1.92-1.37l.94-2.7a6.2,6.2,0,0,0,1.11.84,8,8,0,0,0,1.33.62,4,4,0,0,0,1.24.23,2.7,2.7,0,0,0,1.12-.2.74.74,0,0,0,.46-.74A.78.78,0,0,0,221.16,148.93Z"/><path class="cls-1" d="M227.07,141.34h3.28v11.73h-3.28Z"/><path class="cls-1" d="M232.94,141.34h4l4.46,7.44v-7.44h3.28v11.73h-4l-4.46-7.44v7.44h-3.28Z"/><path class="cls-1" d="M250.78,149.06a3.43,3.43,0,0,0,1.19,1.15,2.75,2.75,0,0,0,1.38.4,4.75,4.75,0,0,0,1.1-.12,4,4,0,0,0,.9-.33V148.5h-2.58v-2.23h5.63v5.07a8.23,8.23,0,0,1-2.26,1.56,6.45,6.45,0,0,1-8.38-2.5,6.13,6.13,0,0,1-.86-3.19,6.3,6.3,0,0,1,.82-3.2,6.12,6.12,0,0,1,2.32-2.28,7.1,7.1,0,0,1,3.55-.86,6.45,6.45,0,0,1,2.31.35,4.15,4.15,0,0,1,1.44.92l-.94,3a3.19,3.19,0,0,0-1.2-1,4.18,4.18,0,0,0-1.85-.37,2.86,2.86,0,0,0-1.38.4,3.43,3.43,0,0,0-1.19,1.15,3.82,3.82,0,0,0,0,3.71Z"/><path class="cls-1" d="M267.67,141.34H278v2.81h-3.52v8.92h-3.29v-8.92h-3.52Z"/><path class="cls-1" d="M280.4,144a5.76,5.76,0,0,1,2.21-2.28,7.49,7.49,0,0,1,7,0,5.8,5.8,0,0,1,2.2,2.28,7,7,0,0,1,0,6.39,5.83,5.83,0,0,1-2.2,2.29,7.57,7.57,0,0,1-7,0,5.79,5.79,0,0,1-2.21-2.29,7.1,7.1,0,0,1,0-6.39Zm3.1,5.05a3.19,3.19,0,0,0,1.16,1.15,2.76,2.76,0,0,0,2.86,0,3.3,3.3,0,0,0,1.17-1.15,4,4,0,0,0,0-3.71,3.3,3.3,0,0,0-1.17-1.15,2.76,2.76,0,0,0-2.86,0,3.19,3.19,0,0,0-1.16,1.15,4,4,0,0,0,0,3.71Z"/><path class="cls-1" d="M302.7,144a5.74,5.74,0,0,1,2.2-2.28,7.49,7.49,0,0,1,7,0,5.83,5.83,0,0,1,2.21,2.28,7.1,7.1,0,0,1,0,6.39,5.85,5.85,0,0,1-2.21,2.29,7.57,7.57,0,0,1-7,0,5.76,5.76,0,0,1-2.2-2.29,7,7,0,0,1,0-6.39Zm3.09,5.05a3.3,3.3,0,0,0,1.17,1.15,2.76,2.76,0,0,0,2.86,0,3.19,3.19,0,0,0,1.16-1.15,4,4,0,0,0,0-3.71,3.19,3.19,0,0,0-1.16-1.15,2.76,2.76,0,0,0-2.86,0,3.3,3.3,0,0,0-1.17,1.15,4,4,0,0,0,0,3.71Z"/><path class="cls-1" d="M324.7,153.07h-3.76l-4.69-11.73h3.52l3.05,8.47,3.05-8.47h3.52Z"/><path class="cls-1" d="M331.15,141.34h8.92V144h-5.63v1.76h4.93v2.7h-4.93v1.76h5.63v2.81h-8.92Z"/><path class="cls-1" d="M342.3,141.34h5.16a7.12,7.12,0,0,1,2.45.39,3.28,3.28,0,0,1,1.68,1.28,4.08,4.08,0,0,1,.61,2.37,2.89,2.89,0,0,1-.76,2.14,3.88,3.88,0,0,1-2,1l3.45,4.53h-3.75l-3.53-4.46v4.46H342.3Zm3.28,2.7v2.7h1.58a2.5,2.5,0,0,0,1.15-.26,1.12,1.12,0,0,0,.49-1.1c0-.57-.16-.93-.49-1.1a2.63,2.63,0,0,0-1.15-.24Z"/><path class="cls-1" d="M358.39,149.06a3.41,3.41,0,0,0,1.18,1.15,2.76,2.76,0,0,0,1.39.4,4.28,4.28,0,0,0,1.84-.36,3.25,3.25,0,0,0,1.21-1l.94,3a4.28,4.28,0,0,1-1.45.91,6.17,6.17,0,0,1-2.31.35,7,7,0,0,1-3.54-.85,6.18,6.18,0,0,1-2.33-2.29,6.63,6.63,0,0,1,0-6.39,6.15,6.15,0,0,1,2.33-2.28,7,7,0,0,1,3.54-.86,6.38,6.38,0,0,1,2.31.35,4.3,4.3,0,0,1,1.45.92l-.94,3a3.23,3.23,0,0,0-1.21-1,4.14,4.14,0,0,0-1.84-.37,2.86,2.86,0,0,0-1.39.4,3.31,3.31,0,0,0-1.66,3A3.37,3.37,0,0,0,358.39,149.06Z"/><path class="cls-1" d="M367.82,144a5.83,5.83,0,0,1,2.21-2.28,7.49,7.49,0,0,1,7,0,5.8,5.8,0,0,1,2.2,2.28,7,7,0,0,1,0,6.39,5.83,5.83,0,0,1-2.2,2.29,7.57,7.57,0,0,1-7,0,5.85,5.85,0,0,1-2.21-2.29,7.1,7.1,0,0,1,0-6.39Zm3.1,5.05a3.19,3.19,0,0,0,1.16,1.15,2.84,2.84,0,0,0,1.43.4,2.79,2.79,0,0,0,1.43-.4,3.3,3.3,0,0,0,1.17-1.15,4,4,0,0,0,0-3.71,3.3,3.3,0,0,0-1.17-1.15,2.89,2.89,0,0,0-1.43-.4,3,3,0,0,0-1.43.4,3.19,3.19,0,0,0-1.16,1.15,4,4,0,0,0,0,3.71Z"/><path class="cls-1" d="M382.2,141.34h3.28l3.76,6.34,3.75-6.34h3.29v11.73H393V147l-3.75,6.34L385.48,147v6.1H382.2Z"/><path class="cls-1" d="M398.86,141.34h8.92V144h-5.64v1.76h4.93v2.7h-4.93v1.76h5.64v2.81h-8.92Z"/><path class="cls-1" d="M422.61,148.93a6.79,6.79,0,0,0-1-.53l-1.32-.56a7.35,7.35,0,0,1-1.31-.74,3.73,3.73,0,0,1-1-1,2.68,2.68,0,0,1-.4-1.51,3.1,3.1,0,0,1,.6-1.92,3.79,3.79,0,0,1,1.62-1.22,6,6,0,0,1,2.29-.42,5.37,5.37,0,0,1,4.15,2l-.94,2.58a11.51,11.51,0,0,0-1.53-1.24,2.87,2.87,0,0,0-1.66-.57.92.92,0,0,0-.69.21.74.74,0,0,0-.2.54.87.87,0,0,0,.52.74,11.41,11.41,0,0,0,1.31.65c.51.22,1,.48,1.56.77a4.45,4.45,0,0,1,1.31,1.12,2.62,2.62,0,0,1,.53,1.68,3.73,3.73,0,0,1-.66,2.33,3.5,3.5,0,0,1-1.73,1.22,7.42,7.42,0,0,1-2.35.37,7,7,0,0,1-2.93-.56,5.27,5.27,0,0,1-1.93-1.37l.94-2.7a6,6,0,0,0,1.12.84,7.9,7.9,0,0,0,1.32.62,4,4,0,0,0,1.25.23,2.65,2.65,0,0,0,1.11-.2.73.73,0,0,0,.46-.74A.78.78,0,0,0,422.61,148.93Z"/><path class="cls-1" d="M428.52,141.34h5.17a5.35,5.35,0,0,1,2.45.54,4.05,4.05,0,0,1,2.29,3.73,4.33,4.33,0,0,1-.61,2.34,4,4,0,0,1-1.68,1.45,5.62,5.62,0,0,1-2.45.5h-1.88v3.17h-3.29Zm3.29,2.7v3.17h1.64a1.71,1.71,0,0,0,1.13-.38,1.54,1.54,0,0,0,.44-1.22,1.5,1.5,0,0,0-.44-1.21,1.76,1.76,0,0,0-1.13-.36Z"/><path class="cls-1" d="M440.42,141.34h5.16a7.18,7.18,0,0,1,2.46.39,3.25,3.25,0,0,1,1.67,1.28,4.08,4.08,0,0,1,.61,2.37,2.89,2.89,0,0,1-.76,2.14,3.85,3.85,0,0,1-2,1l3.45,4.53h-3.75l-3.52-4.46v4.46h-3.29Zm3.29,2.7v2.7h1.57a2.47,2.47,0,0,0,1.15-.26,1.12,1.12,0,0,0,.49-1.1c0-.57-.16-.93-.49-1.1a2.6,2.6,0,0,0-1.15-.24Z"/><path class="cls-1" d="M453,141.34h8.91V144h-5.63v1.76h4.93v2.7h-4.93v1.76h5.63v2.81H453Z"/><path class="cls-1" d="M468,141.34h3.75l4.69,11.73h-3.52l-.72-2h-4.65l-.73,2H463.3Zm.51,7h2.72l-1.36-3.78Z"/><path class="cls-1" d="M478.21,141.34h5.16a5.89,5.89,0,1,1,0,11.73h-5.16Zm7.06,8.21a3.84,3.84,0,0,0,0-4.69,2.78,2.78,0,0,0-1.9-.71h-1.88v6.11h1.88A2.78,2.78,0,0,0,485.27,149.55Z"/><path class="cls-1" d="M498.62,141.34H509v2.81h-3.52v8.92h-3.29v-8.92h-3.52Z"/><path class="cls-1" d="M510.94,141.34h3.29v4.46h4.46v-4.46H522v11.73h-3.28v-4.46h-4.46v4.46h-3.29Z"/><path class="cls-1" d="M524.55,141.34h5.17a7.12,7.12,0,0,1,2.45.39,3.32,3.32,0,0,1,1.68,1.28,4.16,4.16,0,0,1,.61,2.37,2.89,2.89,0,0,1-.77,2.14,3.81,3.81,0,0,1-2,1l3.45,4.53h-3.75l-3.52-4.46v4.46h-3.29Zm3.29,2.7v2.7h1.57a2.47,2.47,0,0,0,1.15-.26,1.12,1.12,0,0,0,.49-1.1c0-.57-.16-.93-.49-1.1a2.6,2.6,0,0,0-1.15-.24Z"/><path class="cls-1" d="M537.52,144a5.76,5.76,0,0,1,2.21-2.28,7.49,7.49,0,0,1,7,0,5.8,5.8,0,0,1,2.2,2.28,7,7,0,0,1,0,6.39,5.83,5.83,0,0,1-2.2,2.29,7.57,7.57,0,0,1-7,0,5.79,5.79,0,0,1-2.21-2.29,7.1,7.1,0,0,1,0-6.39Zm3.1,5.05a3.19,3.19,0,0,0,1.16,1.15,2.76,2.76,0,0,0,2.86,0,3.3,3.3,0,0,0,1.17-1.15,4,4,0,0,0,0-3.71,3.3,3.3,0,0,0-1.17-1.15,2.76,2.76,0,0,0-2.86,0,3.19,3.19,0,0,0-1.16,1.15,4,4,0,0,0,0,3.71Z"/><path class="cls-1" d="M555.75,149.72a2,2,0,0,0,1.59.65,2,2,0,0,0,1.58-.65,2.71,2.71,0,0,0,.58-1.86v-6.52h3.28v6.52a5.69,5.69,0,0,1-1.33,4,5.4,5.4,0,0,1-4.11,1.43,5.2,5.2,0,0,1-4.11-1.52,5.71,5.71,0,0,1-1.33-3.93v-6.52h3.28v6.52A2.76,2.76,0,0,0,555.75,149.72Z"/><path class="cls-1" d="M568.9,149.06a3.41,3.41,0,0,0,1.18,1.15,2.76,2.76,0,0,0,1.39.4,4.73,4.73,0,0,0,1.09-.12,3.66,3.66,0,0,0,.9-.33V148.5h-2.58v-2.23h5.63v5.07a8.08,8.08,0,0,1-2.26,1.56,6.57,6.57,0,0,1-6.06-.21,6.53,6.53,0,0,1-2.32-2.29,6.13,6.13,0,0,1-.86-3.19,6.31,6.31,0,0,1,.83-3.2,6.05,6.05,0,0,1,2.32-2.28,7,7,0,0,1,3.54-.86,6.38,6.38,0,0,1,2.31.35,4.3,4.3,0,0,1,1.45.92l-.94,3a3.23,3.23,0,0,0-1.21-1,4.14,4.14,0,0,0-1.84-.37,2.86,2.86,0,0,0-1.39.4,3.31,3.31,0,0,0-1.66,3A3.37,3.37,0,0,0,568.9,149.06Z"/><path class="cls-1" d="M578.86,141.34h3.28v4.46h4.46v-4.46h3.29v11.73H586.6v-4.46h-4.46v4.46h-3.28Z"/><path class="cls-1" d="M600,141.34h8.92V144h-5.63v1.76h4.92v2.7h-4.92v1.76h5.63v2.81H600Z"/><path class="cls-1" d="M611.13,141.34h8.92v2.81h-5.64v2.12h4.93v2.93h-4.93v3.87h-3.28Z"/><path class="cls-1" d="M622.16,141.34h8.92v2.81h-5.64v2.12h4.93v2.93h-4.93v3.87h-3.28Z"/><path class="cls-1" d="M633.19,141.34h8.92V144h-5.64v1.76h4.93v2.7h-4.93v1.76h5.64v2.81h-8.92Z"/><path class="cls-1" d="M647.87,149.06a3.41,3.41,0,0,0,1.18,1.15,2.76,2.76,0,0,0,1.39.4,4.28,4.28,0,0,0,1.84-.36,3.25,3.25,0,0,0,1.21-1l.94,3a4.28,4.28,0,0,1-1.45.91,6.17,6.17,0,0,1-2.31.35,7,7,0,0,1-3.54-.85,6.18,6.18,0,0,1-2.33-2.29,6.63,6.63,0,0,1,0-6.39,6.15,6.15,0,0,1,2.33-2.28,7,7,0,0,1,3.54-.86,6.38,6.38,0,0,1,2.31.35,4.3,4.3,0,0,1,1.45.92l-.94,3a3.23,3.23,0,0,0-1.21-1,4.14,4.14,0,0,0-1.84-.37,2.86,2.86,0,0,0-1.39.4,3.31,3.31,0,0,0-1.66,3A3.37,3.37,0,0,0,647.87,149.06Z"/><path class="cls-1" d="M656.3,141.34h10.33v2.81h-3.52v8.92h-3.28v-8.92H656.3Z"/><path class="cls-1" d="M668.63,141.34h3.28v11.73h-3.28Z"/><path class="cls-1" d="M682.12,153.07h-3.75l-4.7-11.73h3.52l3,8.47,3-8.47h3.52Z"/><path class="cls-1" d="M688.57,141.34h8.92V144h-5.63v1.76h4.93v2.7h-4.93v1.76h5.63v2.81h-8.92Z"/><path class="cls-1" d="M707.23,141.34h5.16a5.89,5.89,0,1,1,0,11.73h-5.16Zm7.06,8.21a3.84,3.84,0,0,0,0-4.69,2.77,2.77,0,0,0-1.9-.71h-1.87v6.11h1.87A2.77,2.77,0,0,0,714.29,149.55Z"/><path class="cls-1" d="M720.73,141.34H724v11.73h-3.28Z"/><path class="cls-1" d="M731.69,148.93a6.48,6.48,0,0,0-1-.53l-1.31-.56a7.35,7.35,0,0,1-1.31-.74,3.92,3.92,0,0,1-1-1,2.76,2.76,0,0,1-.39-1.51,3.15,3.15,0,0,1,.59-1.92,3.79,3.79,0,0,1,1.62-1.22,6,6,0,0,1,2.29-.42,5.39,5.39,0,0,1,4.16,2l-.94,2.58a11.51,11.51,0,0,0-1.53-1.24,2.9,2.9,0,0,0-1.67-.57,1,1,0,0,0-.69.21.78.78,0,0,0-.2.54.89.89,0,0,0,.53.74,11.19,11.19,0,0,0,1.3.65,16.08,16.08,0,0,1,1.56.77,4.37,4.37,0,0,1,1.32,1.12,2.62,2.62,0,0,1,.53,1.68,3.73,3.73,0,0,1-.66,2.33,3.57,3.57,0,0,1-1.74,1.22,7.36,7.36,0,0,1-2.34.37,7.07,7.07,0,0,1-2.94-.56,5.32,5.32,0,0,1-1.92-1.37l.94-2.7a6.2,6.2,0,0,0,1.11.84,7.63,7.63,0,0,0,1.33.62,4,4,0,0,0,1.24.23,2.7,2.7,0,0,0,1.12-.2.74.74,0,0,0,.45-.74A.76.76,0,0,0,731.69,148.93Z"/><path class="cls-1" d="M737,141.34h10.33v2.81h-3.52v8.92h-3.29v-8.92H737Z"/><path class="cls-1" d="M753.2,141.34H757l4.69,11.73h-3.52l-.72-2h-4.65l-.73,2h-3.52Zm.52,7h2.72l-1.36-3.78Z"/><path class="cls-1" d="M763.41,141.34h4l4.46,7.44v-7.44h3.29v11.73h-4l-4.46-7.44v7.44h-3.29Z"/><path class="cls-1" d="M781.26,149.06a3.43,3.43,0,0,0,1.19,1.15,2.75,2.75,0,0,0,1.38.4,4.25,4.25,0,0,0,1.84-.36,3.17,3.17,0,0,0,1.21-1l.94,3a4.23,4.23,0,0,1-1.44.91,6.24,6.24,0,0,1-2.31.35,7.07,7.07,0,0,1-3.55-.85,6.15,6.15,0,0,1-2.32-2.29,6.63,6.63,0,0,1,0-6.39,6.12,6.12,0,0,1,2.32-2.28,7.07,7.07,0,0,1,3.55-.86,6.45,6.45,0,0,1,2.31.35,4.25,4.25,0,0,1,1.44.92l-.94,3a3.15,3.15,0,0,0-1.21-1,4.11,4.11,0,0,0-1.84-.37,2.86,2.86,0,0,0-1.38.4,3.43,3.43,0,0,0-1.19,1.15,3.82,3.82,0,0,0,0,3.71Z"/><path class="cls-1" d="M790.29,141.34h3.28v11.73h-3.28Z"/><path class="cls-1" d="M796.15,141.34h4l4.46,7.44v-7.44h3.29v11.73h-4l-4.46-7.44v7.44h-3.29Z"/><path class="cls-1" d="M814,149.06a3.43,3.43,0,0,0,1.19,1.15,2.75,2.75,0,0,0,1.38.4,4.67,4.67,0,0,0,1.09-.12,3.9,3.9,0,0,0,.91-.33V148.5H816v-2.23h5.64v5.07a8.14,8.14,0,0,1-2.27,1.56,6.55,6.55,0,0,1-6.05-.21A6.48,6.48,0,0,1,811,150.4a6.12,6.12,0,0,1-.85-3.19,6.3,6.3,0,0,1,.82-3.2,6.12,6.12,0,0,1,2.32-2.28,7,7,0,0,1,3.55-.86,6.45,6.45,0,0,1,2.31.35,4.35,4.35,0,0,1,1.44.92l-.94,3a3.23,3.23,0,0,0-1.21-1,4.14,4.14,0,0,0-1.84-.37,2.86,2.86,0,0,0-1.38.4,3.43,3.43,0,0,0-1.19,1.15,3.82,3.82,0,0,0,0,3.71Z"/><path class="cls-1" d="M85.25,68.85h0a1.42,1.42,0,0,1,1,.38c.93.91,2.83,3.7,2.17,11a1.29,1.29,0,0,1-1.28,1.18h0a1.28,1.28,0,0,1-1.19-.8,27,27,0,0,1-2-10.46A1.39,1.39,0,0,1,85.25,68.85Z"/><path class="cls-3" d="M99.43,176.51h-.77a1.27,1.27,0,0,0-1.25,1.5c.09.54.17,1,.25,1.55,1.06-.62,2.11-1.26,3.14-1.93A1.31,1.31,0,0,0,99.43,176.51Z"/><path class="cls-3" d="M83.84,177.55c-6.72-7.78-.38-24.31,2.43-30.61a46.56,46.56,0,0,0,2.15-5.81l6.08-20.89a1.63,1.63,0,0,0-1-2c-9.85-3.41-7.2-10.49-5.36-13.7a31,31,0,0,0,2.28-4.93l4.79-13.23a4.49,4.49,0,0,1,3.21-2.84l3.32-.77A1.13,1.13,0,0,1,103,84.15l-.94,3.77a7.1,7.1,0,0,1-.9,2.12c-.58.93-1.32,2.52-.49,3.76a2.32,2.32,0,0,0,3.6.25c.58-.64.87-1.67,0-3.26a4.24,4.24,0,0,1-.45-2.6c.31-2.2,1.27-6,4.19-8a1.16,1.16,0,0,0,.24-1.82,16,16,0,0,1-4.06-9.47,3.61,3.61,0,0,0-.33-1.26c-.77-1.59-2.58-6.42,2.21-9a3,3,0,0,0,1.44-1.86,4.69,4.69,0,0,1,4-3.44,4.19,4.19,0,0,1,1.93.08,9.09,9.09,0,0,1,2.17.91,2.15,2.15,0,0,1,.8,2.66,2.13,2.13,0,0,0,.33,2.24,12.91,12.91,0,0,1,2.74,5.07,4.28,4.28,0,0,0,.9,1.91,3.31,3.31,0,0,1,.08,4.6,4.34,4.34,0,0,0-1,2.17l-.5,4.36a2.61,2.61,0,0,0,.86,2.26c.77.7,1.85,1.7,2.73,2.6a5,5,0,0,1,1.45,3.52v.07a5.17,5.17,0,0,1-1.8,3.92l-.95.82a25.54,25.54,0,0,1-2.57,2c-2.53,1.67-8.3,5.85-8.3,9.18l0,.31a2.89,2.89,0,0,0,1.13,2.48,1.14,1.14,0,0,0,1.56-1.63c-.67-.82-1.58-2.7,1.14-5.08l5.24-3.93a1.67,1.67,0,0,1,2.67,1.47,21.24,21.24,0,0,1-2.93,8.94,2,2,0,0,1-2.68.71,1.12,1.12,0,1,0-.89,2c2,.64,5.94.59,7.36-8.09l.92-7.61a2.59,2.59,0,0,1,.8-1.56,2.53,2.53,0,0,0,.82-1.86v-1.5a.93.93,0,0,1,1.36-.84l3.42,1.77A5,5,0,0,1,133,90.72l1,5.06a1.92,1.92,0,0,0,1.9,1.57h3.8a1.1,1.1,0,0,1,.82,1.83l-4.67,5.21a8.25,8.25,0,0,0-2,4l-.43,2.4a8.43,8.43,0,0,1-2.92,5,10.94,10.94,0,0,0-4,8.9l1.1,27.3a101.26,101.26,0,0,0,18.85-58.86V35.33c-25.79-1.13-49.9-8.6-57.2-11-7.3,2.45-31.41,9.92-57.2,11V93.16c0,37.43,20.64,71.73,53,88.69,0-.23,0-.47,0-.69A5.33,5.33,0,0,0,83.84,177.55Z"/><path class="cls-3" d="M69.94,160A.47.47,0,0,0,69,160l-1.58,10c.88.75,1.78,1.49,2.7,2.21C70.09,167.37,70,163.1,69.94,160Z"/><path class="cls-1" d="M89.31,17.48S57.5,29.05,25.68,29.05V93.16a107.41,107.41,0,0,0,29.51,74.09,104.45,104.45,0,0,0,11.06,10c1.27,1,2.56,2,3.88,2.89a103.33,103.33,0,0,0,11.17,6.94c1.25.67,2.52,1.32,3.8,1.94l1.41.69c.92.43,1.85.85,2.8,1.26,1-.41,1.88-.83,2.8-1.26q3.36-1.56,6.57-3.35c2.2-1.22,4.36-2.52,6.45-3.89a104,104,0,0,0,22.94-20.44,107.65,107.65,0,0,0,24.87-68.91V29.05C121.12,29.05,89.31,17.48,89.31,17.48ZM67.43,169.93,69,160a.47.47,0,0,1,.93.06c.07,3.07.15,7.34.19,12.11C69.21,171.42,68.31,170.68,67.43,169.93Zm79.08-76.77A101.26,101.26,0,0,1,127.66,152a98.12,98.12,0,0,1-26.86,25.61c-1,.67-2.08,1.31-3.14,1.93q-4,2.37-8.26,4.36l-.09,0-.09,0c-1.41-.65-2.78-1.35-4.15-2.07-.84-.44-1.67-.9-2.5-1.37a14,14,0,0,1,1.27-2.93l10.07-44.08L92.64,112l6.24-28.62c0-12.73-6.93-17.76-10.45-19.5a1.39,1.39,0,0,0-2,1.24,1.43,1.43,0,0,0,.46,1c5,4.67,4.26,11.4,3.43,14.83a4.5,4.5,0,0,0,1,4,1.55,1.55,0,0,1,.41,1.06,1.58,1.58,0,0,1-1.58,1.58H86.27a2.4,2.4,0,0,1-2.4-2.39,2.37,2.37,0,0,1,.41-1.33,2.11,2.11,0,0,0,.07-2.23c-4.75-8.12-2.59-12.54-1.15-14.28A3.84,3.84,0,0,0,84.11,65v-.53a3.73,3.73,0,0,0-1.76-3.16l-.15-.1A3.81,3.81,0,0,1,80.41,58V56.1A4.63,4.63,0,0,1,80.9,54l.55-1.1A10.93,10.93,0,0,0,82.61,48V40.55a7.56,7.56,0,0,0-4.27-6.81l-.17-.08a7.29,7.29,0,0,0-4.34-.6,13.06,13.06,0,0,0-2.53.7,7.46,7.46,0,0,0-4.62,7v5.65a9.54,9.54,0,0,0,.52,3.09l.62,1.81a4.77,4.77,0,0,1,.25,1.5V54.1a4.67,4.67,0,0,1-1.67,3.58,2.47,2.47,0,0,0-.8,2.55l2.32,8.53a4.77,4.77,0,0,0,1.86,2.63c2,1.45,2.08,3,1.49,4.29a4.42,4.42,0,0,1-6.35,1.84,3.15,3.15,0,0,1-1.58-2.2,3.72,3.72,0,0,1,.88-2.89A4.63,4.63,0,0,0,65,68.28c-.57-2.15-1-4.55-1.35-6.15a1.48,1.48,0,0,0-2-1.1L56.5,63.16a6.15,6.15,0,0,0-3.6,4.2l-2.21,8.9a3.32,3.32,0,0,1-3.22,2.52H42.86a1.73,1.73,0,0,0-1.71,2c.66,3.58,1.67,11-.38,15.12a3.93,3.93,0,0,0,.94,4.59,30.37,30.37,0,0,0,9.41,6,3.71,3.71,0,0,1,2.32,3.41l.16,16.77a48.1,48.1,0,0,1-.54,7.77l-2,13.27a2.12,2.12,0,0,0,1.57,2.38l1.63.42a2.89,2.89,0,0,1,2.17,3.07L56,158.47A101.15,101.15,0,0,1,32.11,93.16V35.33c25.79-1.13,49.9-8.6,57.2-11,7.3,2.45,31.41,9.92,57.2,11Z"/><path class="cls-2" d="M89.31,184l.09,0q4.26-2,8.26-4.36c-.08-.51-.16-1-.25-1.55a1.27,1.27,0,0,1,1.25-1.5h.77a1.31,1.31,0,0,1,1.37,1.12A98.12,98.12,0,0,0,127.66,152l-1.1-27.3a10.94,10.94,0,0,1,4-8.9,8.43,8.43,0,0,0,2.92-5l.43-2.4a8.25,8.25,0,0,1,2-4l4.67-5.21a1.1,1.1,0,0,0-.82-1.83h-3.8a1.92,1.92,0,0,1-1.9-1.57l-1-5.06a5,5,0,0,0-2.59-3.47L127,85.48a.93.93,0,0,0-1.36.84v1.5a2.53,2.53,0,0,1-.82,1.86,2.59,2.59,0,0,0-.8,1.56l-.92,7.61c-1.42,8.68-5.31,8.73-7.36,8.09a1.12,1.12,0,1,1,.89-2,2,2,0,0,0,2.68-.71,21.24,21.24,0,0,0,2.93-8.94,1.67,1.67,0,0,0-2.67-1.47l-5.24,3.93c-2.72,2.38-1.81,4.26-1.14,5.08a1.14,1.14,0,0,1-1.56,1.63,2.89,2.89,0,0,1-1.13-2.48l0-.31c0-3.33,5.77-7.51,8.3-9.18a25.54,25.54,0,0,0,2.57-2l.95-.82a5.17,5.17,0,0,0,1.8-3.92v-.07a5,5,0,0,0-1.45-3.52c-.88-.9-2-1.9-2.73-2.6a2.61,2.61,0,0,1-.86-2.26l.5-4.36a4.34,4.34,0,0,1,1-2.17,3.31,3.31,0,0,0-.08-4.6,4.28,4.28,0,0,1-.9-1.91,12.91,12.91,0,0,0-2.74-5.07,2.13,2.13,0,0,1-.33-2.24,2.15,2.15,0,0,0-.8-2.66,9.09,9.09,0,0,0-2.17-.91,4.19,4.19,0,0,0-1.93-.08,4.69,4.69,0,0,0-4,3.44,3,3,0,0,1-1.44,1.86c-4.79,2.62-3,7.45-2.21,9a3.61,3.61,0,0,1,.33,1.26,16,16,0,0,0,4.06,9.47,1.16,1.16,0,0,1-.24,1.82c-2.92,2-3.88,5.8-4.19,8a4.24,4.24,0,0,0,.45,2.6c.86,1.59.57,2.62,0,3.26a2.32,2.32,0,0,1-3.6-.25c-.83-1.24-.09-2.83.49-3.76a7.1,7.1,0,0,0,.9-2.12l.94-3.77a1.13,1.13,0,0,0-1.35-1.38l-3.32.77a4.49,4.49,0,0,0-3.21,2.84L90.37,99.61a31,31,0,0,1-2.28,4.93c-1.84,3.21-4.49,10.29,5.36,13.7a1.63,1.63,0,0,1,1,2l-6.08,20.89a46.56,46.56,0,0,1-2.15,5.81c-2.81,6.3-9.15,22.83-2.43,30.61a5.33,5.33,0,0,1,1.24,3.61c0,.22,0,.46,0,.69,1.37.72,2.74,1.42,4.15,2.07Z"/></svg>