<svg id="Layer_2" data-name="Layer 2" xmlns="http://www.w3.org/2000/svg" viewBox="0 0 583.77 190.14"><defs><style>.cls-1{fill:#4a358c;}.cls-2{fill:#278ab1;}.cls-3{fill:none;}</style></defs><path class="cls-1" d="M175.09,23.38H193V47.67h24.29V23.38h17.9V87.31h-17.9V63H193V87.31h-17.9Z"/><path class="cls-1" d="M265.93,65.44a18.49,18.49,0,0,0,6.46,6.27,15.22,15.22,0,0,0,7.54,2.17,23.19,23.19,0,0,0,10-2,17.61,17.61,0,0,0,6.59-5.18L301.67,83a23,23,0,0,1-7.86,5q-4.8,1.92-12.6,1.92a38.31,38.31,0,0,1-19.3-4.67,33.2,33.2,0,0,1-12.66-12.47,34.24,34.24,0,0,1-4.48-17.39A34.26,34.26,0,0,1,249.25,38a33.24,33.24,0,0,1,12.66-12.46,38.31,38.31,0,0,1,19.3-4.67q7.8,0,12.6,1.92a23,23,0,0,1,7.86,5L296.56,44A17.59,17.59,0,0,0,290,38.79a23.19,23.19,0,0,0-10-2A15.24,15.24,0,0,0,272.39,39a18,18,0,0,0-9.08,16.36A18.39,18.39,0,0,0,265.93,65.44Z"/><path class="cls-1" d="M391.85,87.31H371.39l-8.7-24.93-9.2,24.93H333L308.74,23.38h19.18l15.85,46.67,3.58-9a50,50,0,0,0-.25-37.69h20.45l14.32,44.49L397,23.38h19.18Z"/><path class="cls-2" d="M175.09,105.33H193v24.3h24.29v-24.3h17.9v63.93h-17.9V145H193v24.29h-17.9Z"/><path class="cls-2" d="M248.93,119.91a31.5,31.5,0,0,1,12-12.47q7.86-4.66,19-4.66t19,4.66a31.57,31.57,0,0,1,12,12.47,38.43,38.43,0,0,1,0,34.78,31.55,31.55,0,0,1-12,12.46q-7.86,4.68-19,4.67t-19-4.67a31.48,31.48,0,0,1-12-12.46,38.43,38.43,0,0,1,0-34.78Zm16.88,27.49a17.38,17.38,0,0,0,6.32,6.26,15,15,0,0,0,15.6,0,17.33,17.33,0,0,0,6.33-6.26,21.65,21.65,0,0,0,0-20.2,17.43,17.43,0,0,0-6.33-6.27,15.1,15.1,0,0,0-15.6,0,17.48,17.48,0,0,0-6.32,6.27,21.65,21.65,0,0,0,0,20.2Z"/><path class="cls-2" d="M352.43,146.7a32.25,32.25,0,0,0-5.56-2.88q-3.39-1.41-7.16-3.07a41.62,41.62,0,0,1-7.16-4A20.64,20.64,0,0,1,327,131a14.6,14.6,0,0,1-2.17-8.18,17,17,0,0,1,3.26-10.48,20.61,20.61,0,0,1,8.82-6.65,32.26,32.26,0,0,1,12.47-2.3q12.92,0,22.63,11.12l-5.11,14.06a64.08,64.08,0,0,0-8.31-6.77,15.9,15.9,0,0,0-9.08-3.07c-1.79,0-3.05.38-3.77,1.15a4.1,4.1,0,0,0-1.09,2.94c0,1.53,1,2.88,2.88,4a57.12,57.12,0,0,0,7.09,3.51,84.87,84.87,0,0,1,8.5,4.22,24.09,24.09,0,0,1,7.16,6.08,14.27,14.27,0,0,1,2.88,9.14q0,8.05-3.58,12.72a19.45,19.45,0,0,1-9.46,6.65,39.83,39.83,0,0,1-12.79,2,38.66,38.66,0,0,1-16-3,29.72,29.72,0,0,1-10.48-7.48L326,146a35.16,35.16,0,0,0,6.07,4.54,38.19,38.19,0,0,0,7.23,3.39A21,21,0,0,0,346,155.2a15.08,15.08,0,0,0,6.07-1.09,4,4,0,0,0,2.49-4A4.13,4.13,0,0,0,352.43,146.7Z"/><path class="cls-2" d="M380.17,105.33h56.26v15.35H417.25v48.58h-17.9V120.68H380.17Z"/><path class="cls-2" d="M447.3,105.33h48.59V120H465.2v9.59h26.85v14.7H465.2v9.59h30.69v15.34H447.3Z"/><path class="cls-2" d="M505.48,105.33H533.6q16.75,0,25,8.83t8.25,23.14q0,14.32-8.25,23.14t-25,8.82H505.48ZM544,150.08q4.35-3.83,4.35-12.78T544,124.51a15.16,15.16,0,0,0-10.36-3.83H523.38v33.24H533.6A15.13,15.13,0,0,0,544,150.08Z"/><path class="cls-1" d="M76.4,60.93h0a1.37,1.37,0,0,1,1,.38c.93.91,2.83,3.69,2.18,11a1.3,1.3,0,0,1-1.29,1.19h0a1.27,1.27,0,0,1-1.18-.8,26.84,26.84,0,0,1-2-10.47A1.39,1.39,0,0,1,76.4,60.93Z"/><path class="cls-3" d="M90.59,168.59h-.78a1.28,1.28,0,0,0-1.25,1.5c.09.53.17,1,.25,1.55,1.06-.62,2.11-1.27,3.14-1.93A1.3,1.3,0,0,0,90.59,168.59Z"/><path class="cls-3" d="M75,169.63c-6.72-7.78-.37-24.31,2.43-30.61a46.12,46.12,0,0,0,2.15-5.82l6.09-20.89a1.65,1.65,0,0,0-1.06-2c-9.85-3.41-7.2-10.49-5.35-13.7a30.86,30.86,0,0,0,2.27-4.92l4.79-13.23a4.5,4.5,0,0,1,3.21-2.85l3.32-.76a1.13,1.13,0,0,1,1.35,1.38L93.25,80a7.28,7.28,0,0,1-.89,2.13c-.59.93-1.33,2.52-.5,3.75a2.33,2.33,0,0,0,3.61.26c.57-.65.86-1.67,0-3.26a4.26,4.26,0,0,1-.45-2.6c.31-2.21,1.27-6.06,4.19-8a1.17,1.17,0,0,0,.24-1.83A16,16,0,0,1,95.39,61a3.73,3.73,0,0,0-.33-1.27c-.77-1.58-2.58-6.41,2.21-9a2.93,2.93,0,0,0,1.44-1.86,4.69,4.69,0,0,1,4.05-3.44,4.2,4.2,0,0,1,1.93.09,8.6,8.6,0,0,1,2.18.91,2.15,2.15,0,0,1,.79,2.66,2.13,2.13,0,0,0,.33,2.24,12.64,12.64,0,0,1,2.74,5.07,4.33,4.33,0,0,0,.9,1.91,3.3,3.3,0,0,1,.08,4.6,4.3,4.3,0,0,0-.95,2.17l-.5,4.35a2.63,2.63,0,0,0,.86,2.27c.77.7,1.85,1.69,2.74,2.6a5,5,0,0,1,1.44,3.52v.06a5.19,5.19,0,0,1-1.8,3.93l-1,.82A24.36,24.36,0,0,1,110,84.51c-2.52,1.67-8.3,5.85-8.3,9.19l0,.31a2.89,2.89,0,0,0,1.13,2.47,1.13,1.13,0,0,0,1.56-1.62c-.67-.83-1.58-2.7,1.14-5.08l5.24-3.93a1.64,1.64,0,0,1,1.64-.21,1.67,1.67,0,0,1,1,1.68,21.24,21.24,0,0,1-2.93,8.94,2,2,0,0,1-2.68.71,1.12,1.12,0,1,0-.89,2c2,.64,5.94.59,7.36-8.09l.93-7.61a2.53,2.53,0,0,1,.79-1.56,2.53,2.53,0,0,0,.82-1.86V78.39a.94.94,0,0,1,1.37-.83l3.41,1.76a5,5,0,0,1,2.6,3.48l1,5.06a1.94,1.94,0,0,0,1.9,1.57h3.8a1.09,1.09,0,0,1,.82,1.82L127,96.46a8.22,8.22,0,0,0-2,4l-.43,2.41a8.38,8.38,0,0,1-2.92,5,11,11,0,0,0-4,8.9l1.11,27.31a101.36,101.36,0,0,0,18.84-58.87V27.41c-25.78-1.13-49.9-8.6-57.2-11-7.3,2.45-31.41,9.92-57.2,11.05V85.23c0,37.44,20.65,71.74,53,88.7,0-.24,0-.47,0-.69A5.33,5.33,0,0,0,75,169.63Z"/><path class="cls-3" d="M61.09,152.11a.47.47,0,0,0-.93-.06L58.58,162c.88.75,1.78,1.49,2.7,2.21C61.24,159.45,61.16,155.18,61.09,152.11Z"/><path class="cls-1" d="M80.46,9.56S48.65,21.12,16.84,21.12V85.23a107.43,107.43,0,0,0,29.5,74.1,104.45,104.45,0,0,0,11.06,10c1.27,1,2.57,1.95,3.88,2.89a104.23,104.23,0,0,0,11.17,6.93c1.25.67,2.52,1.33,3.8,1.95l1.41.68c.92.43,1.86.85,2.8,1.27,1-.42,1.88-.84,2.8-1.27,2.24-1,4.43-2.16,6.57-3.34s4.36-2.53,6.45-3.9a104,104,0,0,0,22.94-20.44,107.55,107.55,0,0,0,24.87-68.91V21.12C112.28,21.12,80.46,9.56,80.46,9.56ZM58.58,162l1.58-9.95a.47.47,0,0,1,.93.06c.07,3.07.15,7.34.19,12.1C60.36,163.49,59.46,162.75,58.58,162Zm79.08-76.77a101.36,101.36,0,0,1-18.84,58.87A98.3,98.3,0,0,1,92,169.71c-1,.66-2.08,1.31-3.14,1.93-2.67,1.57-5.42,3-8.26,4.36l-.09,0-.09,0q-2.1-1-4.15-2.07c-.84-.44-1.67-.91-2.5-1.37A14,14,0,0,1,75,169.63l10.08-44.08-1.28-21.46L90,75.47C90,62.74,83.11,57.7,79.58,56a1.39,1.39,0,0,0-2,1.24,1.37,1.37,0,0,0,.46,1c5,4.67,4.25,11.4,3.43,14.83a4.43,4.43,0,0,0,1,4,1.59,1.59,0,0,1-1.18,2.65H77.42a2.39,2.39,0,0,1-2-3.72,2.13,2.13,0,0,0,.07-2.24c-4.75-8.12-2.59-12.53-1.15-14.27a3.86,3.86,0,0,0,.91-2.44v-.53a3.74,3.74,0,0,0-1.76-3.17l-.15-.1a3.77,3.77,0,0,1-1.78-3.21V48.18a4.63,4.63,0,0,1,.48-2.07L72.6,45a10.93,10.93,0,0,0,1.16-4.89V32.63a7.56,7.56,0,0,0-4.27-6.81l-.17-.08A7.3,7.3,0,0,0,65,25.13a13.8,13.8,0,0,0-2.53.71,7.46,7.46,0,0,0-4.62,7v5.65a9.59,9.59,0,0,0,.52,3.09l.62,1.8a4.81,4.81,0,0,1,.25,1.5v1.32a4.66,4.66,0,0,1-1.67,3.58,2.51,2.51,0,0,0-.8,2.56l2.32,8.52a4.83,4.83,0,0,0,1.86,2.64c2,1.45,2.08,3,1.49,4.29a4.42,4.42,0,0,1-6.35,1.84,3.17,3.17,0,0,1-1.58-2.21,3.75,3.75,0,0,1,.89-2.89,4.67,4.67,0,0,0,.78-4.14c-.58-2.15-1.06-4.56-1.35-6.16a1.5,1.5,0,0,0-2-1.1l-5.12,2.14a6.14,6.14,0,0,0-3.6,4.19l-2.21,8.91a3.31,3.31,0,0,1-3.22,2.51H34a1.74,1.74,0,0,0-1.71,2.06C33,76.49,34,83.89,31.93,88a3.93,3.93,0,0,0,.93,4.59,30.55,30.55,0,0,0,9.41,6A3.67,3.67,0,0,1,44.59,102l.17,16.77a49.36,49.36,0,0,1-.55,7.77l-2,13.27a2.12,2.12,0,0,0,1.58,2.38l1.62.41a2.89,2.89,0,0,1,2.17,3.07l-.44,4.89A101.18,101.18,0,0,1,23.26,85.23V27.41c25.79-1.13,49.9-8.6,57.2-11,7.3,2.45,31.42,9.92,57.2,11.05Z"/><path class="cls-2" d="M80.46,176l.09,0c2.84-1.32,5.59-2.79,8.26-4.36-.08-.52-.16-1-.25-1.55a1.28,1.28,0,0,1,1.25-1.5h.78A1.3,1.3,0,0,1,92,169.71a98.3,98.3,0,0,0,26.87-25.61l-1.11-27.31a11,11,0,0,1,4-8.9,8.38,8.38,0,0,0,2.92-5l.43-2.41a8.22,8.22,0,0,1,2-4l4.66-5.21a1.09,1.09,0,0,0-.82-1.82h-3.8a1.94,1.94,0,0,1-1.9-1.57l-1-5.06a5,5,0,0,0-2.6-3.48l-3.41-1.76a.94.94,0,0,0-1.37.83V79.9a2.53,2.53,0,0,1-.82,1.86,2.53,2.53,0,0,0-.79,1.56l-.93,7.61c-1.42,8.68-5.31,8.73-7.36,8.09a1.12,1.12,0,1,1,.89-2,2,2,0,0,0,2.68-.71,21.24,21.24,0,0,0,2.93-8.94,1.67,1.67,0,0,0-1-1.68,1.64,1.64,0,0,0-1.64.21l-5.24,3.93c-2.72,2.38-1.81,4.25-1.14,5.08a1.13,1.13,0,0,1-1.56,1.62A2.89,2.89,0,0,1,101.66,94l0-.31c0-3.34,5.78-7.52,8.3-9.19a24.36,24.36,0,0,0,2.57-1.94l1-.82a5.19,5.19,0,0,0,1.8-3.93v-.06a5,5,0,0,0-1.44-3.52c-.89-.91-2-1.9-2.74-2.6a2.63,2.63,0,0,1-.86-2.27l.5-4.35a4.3,4.3,0,0,1,.95-2.17,3.3,3.3,0,0,0-.08-4.6,4.33,4.33,0,0,1-.9-1.91A12.64,12.64,0,0,0,108,51.27a2.13,2.13,0,0,1-.33-2.24,2.15,2.15,0,0,0-.79-2.66,8.6,8.6,0,0,0-2.18-.91,4.2,4.2,0,0,0-1.93-.09,4.69,4.69,0,0,0-4.05,3.44,2.93,2.93,0,0,1-1.44,1.86c-4.79,2.63-3,7.46-2.21,9A3.73,3.73,0,0,1,95.39,61a16,16,0,0,0,4.06,9.46,1.17,1.17,0,0,1-.24,1.83c-2.92,1.94-3.88,5.79-4.19,8a4.26,4.26,0,0,0,.45,2.6c.86,1.59.57,2.61,0,3.26a2.33,2.33,0,0,1-3.61-.26c-.83-1.23-.09-2.82.5-3.75A7.28,7.28,0,0,0,93.25,80l.94-3.76a1.13,1.13,0,0,0-1.35-1.38l-3.32.76a4.5,4.5,0,0,0-3.21,2.85L81.52,91.69a30.86,30.86,0,0,1-2.27,4.92c-1.85,3.21-4.5,10.29,5.35,13.7a1.65,1.65,0,0,1,1.06,2L79.57,133.2A46.12,46.12,0,0,1,77.42,139c-2.8,6.3-9.15,22.83-2.43,30.61a5.33,5.33,0,0,1,1.24,3.61c0,.22,0,.45,0,.69Q78.28,175,80.37,176Z"/></svg>