<?xml version="1.0" encoding="UTF-8" standalone="no"?>
<!-- Created with Inkscape (http://www.inkscape.org/) -->

<svg
   xmlns:dc="http://purl.org/dc/elements/1.1/"
   xmlns:cc="http://creativecommons.org/ns#"
   xmlns:rdf="http://www.w3.org/1999/02/22-rdf-syntax-ns#"
   xmlns:svg="http://www.w3.org/2000/svg"
   xmlns="http://www.w3.org/2000/svg"
   xmlns:sodipodi="http://sodipodi.sourceforge.net/DTD/sodipodi-0.dtd"
   xmlns:inkscape="http://www.inkscape.org/namespaces/inkscape"
   width="18.849237mm"
   height="27.516718mm"
   viewBox="0 0 18.849238 27.516718"
   version="1.1"
   id="svg8"
   inkscape:version="0.92.3 (2405546, 2018-03-11)"
   sodipodi:docname="hospital_icon.svg">
  <defs
     id="defs2" />
  <sodipodi:namedview
     id="base"
     pagecolor="#ffffff"
     bordercolor="#666666"
     borderopacity="1.0"
     inkscape:pageopacity="0.0"
     inkscape:pageshadow="2"
     inkscape:zoom="3.959798"
     inkscape:cx="50.590849"
     inkscape:cy="48.49374"
     inkscape:document-units="mm"
     inkscape:current-layer="layer1"
     showgrid="false"
     inkscape:window-width="1366"
     inkscape:window-height="713"
     inkscape:window-x="0"
     inkscape:window-y="27"
     inkscape:window-maximized="1" />
  <metadata
     id="metadata5">
    <rdf:RDF>
      <cc:Work
         rdf:about="">
        <dc:format>image/svg+xml</dc:format>
        <dc:type
           rdf:resource="http://purl.org/dc/dcmitype/StillImage" />
        <dc:title></dc:title>
      </cc:Work>
    </rdf:RDF>
  </metadata>
  <g
     inkscape:label="Layer 1"
     inkscape:groupmode="layer"
     id="layer1"
     transform="translate(-39.220238,-78.463912)">
    <path
       id="path3772"
       style="fill:#4a358c;fill-opacity:1;stroke-width:0.26458335;stroke:#cccccc"
       d="m 43.586148,97.381671 h 1.5875 1.5875 v 1.719792 1.719787 l -1.524971,0.0791 c -1.773428,0.0924 -1.851062,-0.001 -1.73168,-2.094966 z m 8.88111,-0.08992 c 0.565877,0.01632 1.032055,0.105178 1.194244,0.239779 0.463127,0.38436 0.505484,2.65659 0.05788,3.1042 -0.452199,0.45217 -3.101017,0.41635 -3.277836,-0.0444 -0.07646,-0.19924 -0.102526,-1.002926 -0.05788,-1.785937 l 0.08165,-1.423683 1.410251,-0.08113 c 0.203136,-0.01162 0.403071,-0.01422 0.591693,-0.0088 z m -8.88111,-6.789248 h 1.5875 1.5875 v 1.719792 1.719273 l -1.524971,0.07958 c -1.773428,0.09241 -1.851062,-0.0011 -1.73168,-2.094963 z m 9.151379,-0.09612 c 0.616635,0.01119 0.959742,0.102645 1.072285,0.280088 0.333248,0.52542 0.268883,2.710786 -0.09043,3.070095 -0.452199,0.45216 -3.101017,0.416349 -3.277836,-0.04444 -0.07646,-0.19925 -0.102526,-1.002916 -0.05788,-1.785937 l 0.08165,-1.423684 1.562696,-0.08062 c 0.267822,-0.01381 0.503973,-0.01924 0.709517,-0.0155 z m -4.124296,-8.502838 c 0.848111,0 0.926042,0.0651 0.926042,0.776695 0,0.683202 0.103788,0.786995 0.859896,0.859896 0.756105,0.0729 0.869677,0.186986 0.942578,0.943097 0.07927,0.822184 0.04202,0.859896 -0.84336,0.859896 -0.851368,0 -0.932505,0.06933 -1.008724,0.859895 -0.06719,0.696796 -0.210446,0.874525 -0.754475,0.937927 -0.843775,0.0984 -1.047998,-0.106347 -1.047998,-1.048515 0,-0.65656 -0.09857,-0.74931 -0.79375,-0.749307 -0.730751,0 -0.79375,-0.0735 -0.79375,-0.926042 0,-0.852541 0.06299,-0.926042 0.79375,-0.926042 0.705559,0 0.79375,-0.08819 0.79375,-0.79375 0,-0.73075 0.0735,-0.79375 0.926041,-0.79375 z m 0.109038,-3.439583 c -4.321808,0 -4.719603,0.04058 -5.365049,0.548285 -0.648388,0.510022 -0.697114,0.695053 -0.697114,2.645834 v 2.097548 h -1.30793 c -2.205001,0 -2.131653,-0.391843 -2.131653,11.382766 0,7.585965 0.08132,10.288455 0.317294,10.524425 0.232494,0.2325 2.393008,0.31781 8.069791,0.31781 4.263761,0 7.752498,-0.0453 7.752498,-0.10026 2.20388,-0.052 2.945692,0.43264 2.645833,-8.994794 v -6.081284 c 0,-7.046938 -8.62e-4,-7.048663 -2.158007,-7.048663 h -1.281576 v -2.233973 c 0,-3.108211 0.09642,-3.057694 -5.844087,-3.057694 z"
       inkscape:connector-curvature="0"
       sodipodi:nodetypes="ccccccccccccccccccccccccccccccccccssscsccscssssscscsscsccsscss" />
  </g>
</svg>
