<?xml version="1.0" encoding="UTF-8" standalone="no"?>
<!-- Created with Inkscape (http://www.inkscape.org/) -->

<svg
   xmlns:dc="http://purl.org/dc/elements/1.1/"
   xmlns:cc="http://creativecommons.org/ns#"
   xmlns:rdf="http://www.w3.org/1999/02/22-rdf-syntax-ns#"
   xmlns:svg="http://www.w3.org/2000/svg"
   xmlns="http://www.w3.org/2000/svg"
   xmlns:sodipodi="http://sodipodi.sourceforge.net/DTD/sodipodi-0.dtd"
   xmlns:inkscape="http://www.inkscape.org/namespaces/inkscape"
   width="45.228065mm"
   height="45.579742mm"
   viewBox="0 0 45.228066 45.579742"
   version="1.1"
   id="svg8"
   inkscape:version="0.92.3 (2405546, 2018-03-11)"
   sodipodi:docname="hospital_icon.svg">
  <defs
     id="defs2" />
  <sodipodi:namedview
     id="base"
     pagecolor="#ffffff"
     bordercolor="#666666"
     borderopacity="1.0"
     inkscape:pageopacity="0.0"
     inkscape:pageshadow="2"
     inkscape:zoom="0.7"
     inkscape:cx="-197.07389"
     inkscape:cy="90.623555"
     inkscape:document-units="mm"
     inkscape:current-layer="layer1"
     showgrid="false"
     inkscape:window-width="1366"
     inkscape:window-height="713"
     inkscape:window-x="0"
     inkscape:window-y="27"
     inkscape:window-maximized="1" />
  <metadata
     id="metadata5">
    <rdf:RDF>
      <cc:Work
         rdf:about="">
        <dc:format>image/svg+xml</dc:format>
        <dc:type
           rdf:resource="http://purl.org/dc/dcmitype/StillImage" />
        <dc:title></dc:title>
      </cc:Work>
    </rdf:RDF>
  </metadata>
  <g
     inkscape:label="Layer 1"
     inkscape:groupmode="layer"
     id="layer1"
     transform="translate(-91.401033,-139.75332)">
    <path
       style="fill:#000000;stroke:#ffffff;stroke-width:0.46322459"
       d="m 96.179445,184.98372 c -2.12043,-1.10702 -3.515914,-2.81685 -4.173833,-5.11399 -0.313201,-1.09359 -0.434834,-7.43504 -0.343229,-17.89573 l 0.141916,-16.20192 1.144777,-1.73008 c 0.663989,-1.00346 2.096029,-2.21871 3.409749,-2.89357 l 2.26498,-1.1635 h 15.389115 15.3891 l 2.26497,1.1635 c 1.31377,0.67487 2.74577,1.89009 3.40976,2.89359 l 1.14478,1.73009 0.13222,16.43621 c 0.11284,14.0068 0.0265,16.72015 -0.5839,18.35717 -0.77484,2.07814 -1.97026,3.39989 -4.12752,4.56373"
       id="path953" />
    <path
       style="fill:#ffffff;stroke:#ffffff;stroke-width:0.46322459"
       d="m 118.85902,171.00296 0.13101,-4.56885 h 4.57909 4.57911 l -0.13102,-4.56887 -0.13101,-4.56887 -4.4646,-0.13407 -4.46463,-0.13407 v -4.43474 -4.43474 h -4.57909 -4.5791 v 4.43474 4.43474 l -4.46461,0.13407 -4.46462,0.13407 -0.13101,4.56887 -0.13101,4.56887 h 4.59567 4.59566 v 4.3736 c 0,2.40548 0.14452,4.52155 0.32125,4.70236 0.17667,0.18079 2.18575,0.26865 4.46461,0.19524 l 4.14339,-0.13354 z"
       id="path838" />
  </g>
</svg>
